<svg viewBox="0 0 595.14 841.59" xmlns="http://www.w3.org/2000/svg"><g transform="translate(-1.43 -1.46)"><path d="m1.43 1.46h595.14v841.59h-595.14zm576.64 647.3c-5-1.16-9.06-3.37-10.7-8.51l-.92-1.8c-3.14 6.19-9.41 8.53-15 11.63 5.79 3.77 6.24 9.31 5.31 15.3.07.46.14.92.2 1.38l1.36-1.17v.07c5.85-3.87 11.48-2.62 17.92 2.35l-1.42-5.32q1.53-5.34 3-10.66h.09c.09-1.03.09-2.17.16-3.27zm-53.57-326.63-1.37 7.64 3.33-2.55c5.8-2.24 11.6-4.43 17.22.41l2.82 1.65c.34.25.67.68 1 .7s1-.48 1-.63c-1.94-8-2.62-15.83 4-22.42l4.34-3.16-10.3-1.12c-6.85-.79-6-7.63-9.26-11.24l-1.74-3.78c-3.36 8.11-5.35 16.21-15.56 16.14l-2.34.14-.28-.23.32.19c-.37.62-.75 1.23-1.12 1.84l2.62 1.16c1.48 5.13 8.47 8.51 5.32 15.26zm-488.73-236.57c6-3.36 11.84-2.73 18.83 2.65l-1.92-5.55c-2.07-6.53 2.93-9.73 7.85-15-10.18 4.22-12.67-2.49-15.84-8.21a9 9 0 0 0 -.69-1.05.72.72 0 0 0 -.61.06c-2.58 6.54-7.39 10.04-14.64 10.1l.54 1.59c4.63 3.75 7.19 8.17 5 14.23-.09.2.95.78 1.48 1.18zm290.06 404.94c-.8-.92-1.61-2.65-2.39-2.64-6.76.07-11-2.89-12.94-9.21-.28-.91-1.43-1.56-2.19-2.33-4.37 5.09-6.73 12.74-15.82 11.84-4.47-.34-3.36 2-1.26 3.34 6.66 4.31 7 10.21 5.28 16.87a2.22 2.22 0 0 0 -.59.38 1.77 1.77 0 0 0 -.18.59c2-.18 4.41.29 5.83-.67 4.67-3.16 8.93-3.1 13.43.13 1.4 1 3.13 1.58 6.18 3.08-1.06-3.27-1.66-5.11-2.26-6.95-2.08-6.81 3.39-10.17 6.91-14.43zm60.24-369.82c-.8-.92-1.6-2.64-2.39-2.63-6.75.07-11-2.89-12.93-9.21-.28-.91-1.44-1.57-2.19-2.34-4.37 5.1-6.74 12.75-15.82 11.84-4.49-.32-3.33 2-1.25 3.35 6.66 4.3 7 10.21 5.26 16.86a2.49 2.49 0 0 0 -.59.38 1.67 1.67 0 0 0 -.17.6c1.76-.1 4 .43 5.21-.43 5.15-3.68 9.89-3.27 14.8.26 1.09.78 2.46 1.17 5.21 2.44-.94-3.09-1.49-4.89-2-6.69-2.13-6.81 3.35-10.17 6.86-14.43zm108.82 434.12-2.35 1.52c-5.29 6-3.3 12.82-1.57 19.26 1.28 4.78 4.63 5.26 8.66 2.12 6.67-5.2 1.38-10.52.42-15.8-.33-1-.65-2-1-3 0-1 0-1.89 0-2.83.76-6.36 5.82-5.73 10.19-5.76 13.4-.08 26-2 35.51-12.59 9.35-12 8.18-18.94-4.64-27.48-8-5.3-16.23-10.18-23.75-16-7.34-5.68-14.35-12.1-11.72-22.9 7.36-.16 14.72-.62 22.06-.39 11.36.35 20.89-3.19 28.59-11.38 9.34-5.68 11-16.71 2.54-24.53-6-5.58-13.59-9.7-20.82-13.89-3.33-1.93-7.43-2.86-11.31-3.48-1.54-.25-4.81 1.53-4.86 2.5a7.73 7.73 0 0 0 2.51 5.74c5.12 4.06 10.94 7.28 16 11.45 6.13 5.11 12.26 10.52 12.64 19.34-2.33 1.48-4.57 4-7 4.23-8.23.7-16.56.3-24.81.83a18.46 18.46 0 0 0 -15.42 9.66 32.29 32.29 0 0 1 -3 1.41c-6.92 2.36-11.77 16.48-6.47 21.15a255.59 255.59 0 0 0 29 22.35c8.28 5.4 14.87 11.13 15.65 21.39-6.76 1.38-13.67 4.38-20.25 3.81-11.9-1-18.21 5.68-24.63 13.2zm-304.49-535.17c-.17-.41-.23-1-.54-1.16a1.74 1.74 0 0 0 -1.3.08c-1.43 6.42-6 9.13-14.55 9.36 8.42 4.37 8.78 9.79 6.94 16.53 5.68-4.62 11.13-5.25 15.14-1.13 1.6-5.5 3.1-10.7 4.41-15.21l-2.41 1.2-5-2zm41.89 240.57-15.21 3.4-1.26 2.13 11.06 8.85c-.49 4.15-1 8.3-1.34 12.47 0 .42 1.59.94 2.44 1.42 8.65-4.44 17.16-4.32 25.5 2 .29-16.74.29-16.74 4.22-21.66l5.83-3.34-1.36-2.54c-12 1.13-18.45-5.52-22.43-16.45zm-161.9 510.28a7.47 7.47 0 0 0 -1.14.44.6.6 0 0 0 -.1.58q3.42 5.18 6.88 10.34l-2.13 8.56c7.36-8.26 13.9-4.6 21.34-2.5-1.63-3-3.27-6-4.86-9l10.05-7.62c-8.48-.56-13.34-4.4-15.11-11.67-.94.3-1.34.35-1.35.44-.84 8.1-6.08 10.67-13.58 10.43zm67.31-435.48c-.55 2.21-1.11 4.43-2.19 8.69 7.42-8.35 14-4.84 21.46-2.59-1.6-3-3.2-6.08-4.77-9.08l8.48-6.46-16.18-12c1.58-.46 1.18-.41 1.17-.33-.85 8.07-6.1 10.64-13.6 10.41a7.47 7.47 0 0 0 -1.14.44.58.58 0 0 0 -.11.57c2.28 3.44 4.58 6.88 6.88 10.35zm384.49-176.83c3.71 8.22 3.76 15.93-1 24.19a38.41 38.41 0 0 0 -4.58 17.17c-.16 4.18 1.91 9.18 7 10.67 1.38-6 1.32-11.83 3.92-16.09 8.65-14.2 8.18-27.29-2.54-40l-8.73-13.85c-.14-4.38-6.59-8.68-.15-13.12 4.93.66 9.86 1.92 14.77 1.84 8.62-.15 13-6.79 9.85-14.53-1.33-3.3-2.81-7.31-5.53-9.12-3.21-2.12-7.83-2.21-11.84-3.17-8.59-1.14-14.14 3.49-20.08 11.4-1.51-8.45-2.74-15.3-4-22.16 2.79.41 5.85 1.7 8.32 1 3.83-1.06 8.56-2.67 10.44-5.57 1.51-2.33.16-7.29-1.33-10.44-3.8-8-11.07-6.78-18.14-5.31l-7.93 7.39c-2.92-8-.43-14.69 7.58-21.65 1.67-1.46 2.32-4 3.44-6.09-2.51-.92-5.36-3.08-7.47-2.53-7.83 2-12 8.26-14.3 15.31s-.78 14.37 5.25 19c4 3 4.4 6.4 5.47 10.45 1.77 6.68 3.09 14.41 7.45 19.26s6 9.8 7.55 15.61c1.38 5.21 4.3 10 6.54 15zm-336.1 86.42c11.83.17 19.14-4.31 19.58-13.47a50.43 50.43 0 0 0 -2.83-19.66c-4.19-11.3-3.36-20.11 5.6-27.56 7.9-6.57 13-14.32 15.18-24.28 1-4.79 2.32-10.14 5.34-13.78 4.87-5.86 10-11.08 10.78-19.14a9.9 9.9 0 0 1 3.39-6.5c9.85-7.15 8.76-17.31 7.46-26.95-1.25-9.29-10-14.16-19.17-12.2-2.09 5.37 1.84 8.28 4.47 12.14 2.4 3.52 2.89 8.27 4.23 12.48l-1.85.49c-4.78-5.77-7.64-6.92-15.82-5.38-4.32.81-10.17 1.07-12.42 3.83-6.3 7.76-.84 19.18 9.13 21.06 2 .39 4.07.86 6.94 1.46l-2.59 9.21c-3.58-2.94-6.38-6.64-10.09-8-8.45-3.11-25.22 2.7-30.93 9.78-4 4.93-1.2 18.59 4.71 20.83 5.24 2 10.91 2.88 18.34 4.74-3.82 4.91-7 9.69-10.93 13.89-7.35 7.92-12.7 16.74-12.24 27.63.24 5.75 3 11.37 3.56 17.14.66 7.19.16 14.48.16 22.24zm17.19 175.68-1.14-1.66c1.71-2.15 3-4.8 5.2-6.35 4.65-3.31 9.93-5.78 14.52-9.15 1.81-1.32 3.45-4.18 3.31-6.22-.08-1.23-3.63-3-5.75-3.22-8.76-.76-16.66 1.82-23.84 6.81-8.45 5.87-8.85 15.07-.1 20.79 7.31 4.78 15.31 8.55 24 13.3-.4 5.36-5.93 8.87-11.45 12.53-12.89 8.56-12.27 18.52-4 26.77 3.71 3.72 6.33 8.47 9.9 13.38-2.1 1.95-4.2 4-6.38 5.9-7.34 6.48-8.14 13.48-3.42 22.3 2.77 5.18 5.66 10.77 6.36 16.42 1 8.4 5.28 11.56 15.42 7.9-2.06-5.75-3.75-11.69-6.29-17.25-4.68-10.24-4.16-12.42 4.53-20.12 2.14-1.9 4.56-6 3.81-8a62.15 62.15 0 0 0 -9.42-17.4c-4.69-5.79-5.51-11.2 0-16.16 3.6-3.24 7.5-6.17 11.29-9.21 4.49-3.62 5.6-15.61 1.13-19.21-7.96-6.42-15.67-13.94-27.68-12.15zm211.52-70.27c.07 1.53-.5 3.67.33 4.57 5.55 6 .76 9.71-2.89 13.7-1.41 1.55-3 2.94-4.35 4.53-3.89 4.6-2.55 17.76 2.4 20.66s10.56 5.4 16.4 8.33c-3.31 10 5.63 15 9.59 22.2.56 1 3.78 1.61 5.12 1 1.85-.83 4.67-3.57 4.32-4.46-3-7.69-6.66-15.15-10.16-22.66-.16-.34-.85-.41-1.21-.71-4.25-3.48-8.48-7-12.85-10.58 8.6-6.15 14.4-20.77 11.53-27.91-2.68-6.62-9.03-9.75-18.23-8.67zm-341.31-131.39c-.61.12-2.93-.06-4.2 1-5.89 4.8-11.66 9.77-17.13 15-4.35 4.19-3.75 9.52.94 13.21s10.24 2.95 13.81-1.77c1.78-2.36 4.4-4.1 6.27-6.4 3-3.69 6.43-7.31 8.42-11.52 3.02-6.35.4-9.57-8.11-9.52zm91.28 412.8c11.18 0 11.47-.31 11.48-11.35 0-9.94-1.7-11.62-11.92-11.7-6.83-.05-10.57 4.08-10.51 11.62.07 10.25 1.18 11.45 10.95 11.43zm336.08 90.46.7-.18c-1.19-4.62-1.78-9.51-3.71-13.82-2.56-5.75-8.22-4.08-12.37-2.57-4.62 1.67-4 6-2.79 10.06a79.34 79.34 0 0 1 3.41 13.85c.5 4.32 1.53 6.61 6.65 6.62 5.32 0 8.08-1.7 8.11-7 .02-2.31 0-4.63 0-6.96zm-208.58-673.57c17.28 6.26 30-6.5 24.92-19.64-12.99-1.76-27.29 9.5-24.92 19.64zm-8.82 41.7c1.73 7-3.74 15.83 5.81 19.48 3.68 1.41 10.14.08 13.32-2.43 5.09-4 5-11.73 1.38-15.87-5.14-5.92-12.96-2.76-20.51-1.18zm103.36 495.58c7.75 0 11.86-4.11 11.87-11.88 0-5.8-4.4-11.31-9.41-10.66-10.67 1.38-13.64 2.42-13.42 11 .22 8.8 2.72 11.54 10.96 11.54zm-257-552.13c-4.06 0-8.3-.33-12.44.15-1.7.2-4.35 1.95-4.58 3.31-1.09 6.54-1.51 13.19-2.16 19.8 17.45 1.68 21.58-3.71 19.15-23.26zm232.7 387.74c0-7.52-.27-7.77-8.68-7.76s-12.71 3.77-12.76 11.15 1.13 8.36 10.89 8.29c8.19-.05 10.54-2.65 10.55-11.68zm-168.13 298.57c-1.43-2-2.42-4.75-4.3-5.56a9.49 9.49 0 0 0 -7.21.48c-6.35 3.35-7.58 9.8-7.23 15.88.15 2.54 3.8 5.34 6.5 7.08 1.26.81 5.36 0 5.91-1.17 2.47-5.15 4.13-10.67 6.33-16.71zm360.08 88.48c4.55-6.14 4.86-7.38.84-12.52-2.65-3.39-5.59-7.49-9.32-8.86-3.34-1.22-9.47-.51-11.65 1.8-3.7 3.9.16 7 4.23 9.33 5.44 3.11 10.61 6.81 15.9 10.25zm-165.9-473.41c0-11.23 0-11.23-8.33-11.24-6.72 0-10 4.09-10.1 12-.12 7 4.41 7.25 9.85 7.66 7.74.62 9.78-2.8 8.58-8.42zm184.59-253.57c9.48-.07 10.82-1.93 11.37-10.89.5-8.25-6.25-8.23-9.78-6.79-4.41 1.81-9.25 6.46-10.49 10.82-1.54 5.37 3.75 7.38 8.9 6.86zm-101.37 189 2.31-2.47c-.92-5.14-.11-12.42-3.24-14.83s-10.76-1.09-15.23 1c-1.93.91-2.53 10.63-.84 11.61 4.88 2.83 11.22 3.27 17 4.66zm-330.78-159.26c2.66-7.69.49-13.57-7.24-15.31-3.29-.74-9.34 1-10.69 3.5-1.84 3.32-2.18 10 0 12.37 5.15 5.44 12.02 3.34 17.93-.56zm257.51-80.7c-6.73-.13-10.66 4.52-11.15 13.16-.28 5 4.51 10.85 9.51 11.31a3.79 3.79 0 0 0 3-1.82c1.78-4.55 3.4-9.17 4.74-13.85 1.72-5.9-.35-8.69-6.1-8.8zm-336.51 461.44c-8.22-.05-10.27 2.25-10.24 10.8 0 6.64 2.95 9.49 10 9.7 4.86.14 7-4.3 7.17-13.61.07-5.37-1.84-7.97-6.93-6.89zm170.54 317.8c6.64.09 10.61-3.5 10.92-9.72.24-5.1-1.89-7.86-7.35-7.94-7.3-.11-12.17 3.13-12.28 8.37-.19 6.08 2.74 9.21 8.66 9.29zm-164.99-498.25c-.22-6.35-12.61-17.9-17.76-17-2.53.45-4.87 3-6.73 5.09-.47.54.76 3.43 1.93 4.31 4.75 3.55 9.69 6.89 14.77 10 1.56.95 4 1.56 5.63 1 1.26-.4 1.82-2.81 2.16-3.4zm-15.22-155.45c-.64 5.21-2.1 10.45-1.6 15.49.28 2.77 3.66 5.47 6.19 7.54.41.34 4.87-2.35 5.49-4.25 1.94-5.89 2.93-12.07 4.42-18.78zm410.86 27c15.79 2.09 16.26 1.92 17.26-9.82.22-2.56-1.37-5.27-2.13-7.92-3.34 1-8.19.91-9.7 3.08-2.78 4.05-3.62 9.35-5.43 14.71zm-200.59 17.42c7.51.1 11.6-3 11.18-8.89-.43-6.1-4.81-7.76-10.33-7.8s-9.74 1.18-9.59 8c.14 5.77 2.14 9.26 8.74 8.69zm96.52 82.74c1.29-5-2.84-6.23-8.76-6.48-7.82-.34-8.23 4.42-8.18 10 .05 7.17 1.95 8.93 9.24 9.11 8.35.21 6.94-5.71 7.7-12.63zm-286.74 379.3c1.18-4.09 2.79-7.77 3.12-11.55.21-2.37-1.44-7-2.4-7-3.33-.14-7.7.29-9.89 2.33-4.65 4.32-4 10.23-2.3 16.2zm263.43-481.68c-2.45 4.81-4.61 7.88-5.53 11.27-.62 2.31-.44 6.41 1 7.37 3.58 2.37 8.77 6.87 12.22 1.2 2-3.37 1.62-9.11.29-13.16-.91-2.8-5.26-4.54-7.98-6.68zm154.31 161.83c-5.86-.66-12.38-2.3-11.95 5.54.18 3.45-2.1 11 6.94 10.53 7.45-.36 12.28-4 12.64-10.78s-3.69-6.35-7.63-5.29zm-367.12 80.8c-7.66-4-13.44-3.29-17.29 1.9-1.57 2.13-1.56 7.72.12 9.28 2.59 2.39 9.88 4.47 10.56 3.52 3.06-4.32 4.54-9.74 6.61-14.7zm2-221c5.84 3.87 9.19 2.24 11.59-3.75 1.24-3.1 4.48-5.4 5.91-8.46a10.23 10.23 0 0 0 0-7.05c-.24-.7-4.06-1-5.73-.35-7.97 3.23-12.36 10.74-11.77 19.6zm155.16 413.56c14.57 1.6 16.56.77 16.79-6.8.27-8.87-.73-9.82-10-9.48-7.95.29-8.65 1.9-6.79 16.28zm82.27 190.5c-6.26-1.87-12.16-3-14.74 4.07-1.13 3.11-1.51 7.44-.09 10.12.91 1.71 6.38 2.75 8.75 1.75 6.87-2.91 6.4-9.4 6.08-15.94zm63.4-309.85c7.52 1.39 7.72-3.35 7.88-8.71.19-6.66-3.76-7.21-9.13-7.31-6.78-.13-7.63 3.69-7.7 8.89-.08 6.19 2.91 8.34 8.95 7.13zm21.79-404.6c.34-4.21.65-8.29-6.15-8-7 .27-9.51 2.54-9.79 9.52-.23 5.88 2.38 8.15 8.3 8.33 7.52.21 7.76-4.42 7.64-9.85zm-151.35 276.14c-2.86-2-5.54-5.21-8.63-5.64-4.46-.64-7.59 2.62-7.56 7.29s1.95 8.06 7.54 8.23c6.04.12 6.71-4.06 8.65-9.88zm.86-114.51c-.12.9-.25 1.8-.37 2.7 4.3.64 9.05 2.63 12.73 1.44 2.43-.78 4.26-6 4.69-9.44.59-4.59-2.74-5.61-6.35-3.21-3.83 2.47-7.15 5.6-10.7 8.46zm-248.43 136.18c.8-5.41-1.18-10.23-6.94-9.25-2.94.5-6.3 5.75-7.13 9.37-1.28 5.51 3.35 6.49 8.16 6.71 5.4.24 6.67-2.33 5.91-6.83zm364.39-162.6 2.44-2.12c-1.1-3.91-1.3-8.52-3.68-11.42-1.13-1.39-7.57-.68-9.46 1.17s-2.05 7.82-.48 9.13c2.7 2.25 7.35 2.28 11.18 3.24zm-1.55 427.64c-9.65-1.3-12.12.81-13.19 9.51-.75 6.18 2.95 7.2 7.65 7.25 4.88.05 6.67-5.37 5.54-16.76zm-259.41-127.53.07-3.2c-2.41-1.86-4.61-4.9-7.27-5.34-4.8-.79-7.25 2.62-7.36 7.18-.09 4.09 2.05 7.15 6.41 6.24 2.94-.62 5.45-3.19 8.15-4.88zm140 171.61-3.6.14c-1.52 2.52-3.86 4.9-4.35 7.6-.81 4.48 2.75 6.25 6.67 6.11s7.31-2.22 6.21-6.59c-.64-2.66-3.2-4.86-4.91-7.26z" fill="#fefdfd"/><path d="m186.09 244.59c0-7.76.5-15.05-.16-22.24-.52-5.77-3.32-11.39-3.56-17.14-.46-10.89 4.89-19.71 12.24-27.63 3.89-4.2 7.11-9 10.93-13.89-7.43-1.86-13.1-2.76-18.34-4.74-5.91-2.24-8.69-15.9-4.71-20.83 5.71-7.08 22.48-12.89 30.93-9.78 3.71 1.36 6.51 5.06 10.09 8l2.59-9.21c-2.87-.6-4.9-1.07-6.94-1.46-10-1.88-15.43-13.3-9.13-21.06 2.25-2.76 8.1-3 12.42-3.83 8.18-1.54 11-.39 15.82 5.38l1.85-.49c-1.34-4.21-1.83-9-4.23-12.48-2.63-3.86-6.56-6.77-4.47-12.14 9.22-2 17.92 2.91 19.17 12.2 1.3 9.64 2.39 19.8-7.46 27a9.9 9.9 0 0 0 -3.39 6.5c-.74 8.01-5.91 13.25-10.74 19.09-3 3.64-4.31 9-5.34 13.78-2.14 10-7.28 17.71-15.18 24.28-9 7.45-9.79 16.26-5.6 27.56a50.43 50.43 0 0 1 2.83 19.66c-.48 9.16-7.79 13.64-19.62 13.47zm17.68-93.34 2.53-2.13-6.74-7.33-2.5 2.2z" fill="#f82116"/><path d="m203.28 420.27c12-1.79 19.67 5.7 27.63 12.13 4.47 3.6 3.36 15.59-1.13 19.21-3.79 3-7.69 6-11.29 9.21-5.51 5-4.69 10.37 0 16.16a62.15 62.15 0 0 1 9.42 17.4c.75 2-1.67 6.12-3.81 8-8.69 7.7-9.21 9.88-4.53 20.12 2.54 5.56 4.23 11.5 6.29 17.25-10.14 3.66-14.38.5-15.42-7.9-.7-5.65-3.59-11.24-6.36-16.42-4.72-8.82-3.92-15.82 3.42-22.3 2.18-1.93 4.28-3.95 6.38-5.9-3.57-4.91-6.19-9.66-9.9-13.38-8.25-8.25-8.87-18.21 4-26.77 5.52-3.66 11.05-7.17 11.45-12.53-8.66-4.75-16.66-8.52-24-13.3-8.75-5.72-8.35-14.92.1-20.79 7.18-5 15.08-7.57 23.84-6.81 2.12.18 5.67 2 5.75 3.22.14 2-1.5 4.9-3.31 6.22-4.59 3.37-9.87 5.84-14.52 9.15-2.16 1.55-3.49 4.2-5.2 6.35z" fill="#c42c4a"/><path d="m414.8 350c9.15-1.11 15.55 2 18.23 8.68 2.87 7.14-2.93 21.76-11.53 27.91 4.37 3.6 8.6 7.1 12.85 10.58.36.3 1 .37 1.21.71 3.5 7.51 7.14 15 10.16 22.66.35.89-2.47 3.63-4.32 4.46-1.34.6-4.56 0-5.12-1-4-7.16-12.9-12.22-9.59-22.2-5.84-2.93-11.3-5.34-16.4-8.33s-6.29-16.06-2.4-20.66c1.35-1.59 2.94-3 4.35-4.53 3.65-4 8.44-7.68 2.89-13.7-.83-.88-.26-3.02-.33-4.58z" fill="#f82116"/><path d="m516.15 127.1c-6.44 4.44 0 8.74.15 13.12l-4.07 2.61c-2.24-5-5.16-9.82-6.54-15-1.52-5.81-3.12-10.69-7.55-15.61s-5.68-12.58-7.45-19.26c-1.07-4.05-1.5-7.41-5.47-10.45-6-4.63-7.56-11.87-5.25-19s6.47-13.26 14.3-15.31c2.11-.55 5 1.61 7.47 2.53-1.12 2.06-1.77 4.63-3.44 6.09-8 7-10.5 13.69-7.58 21.65l7.93-7.39c3.33 1 9.08-1 7.65 5.85-2.89 2.69-8.62 4.28-4 9.87l-2.94 4.59c1.22 6.86 2.45 13.71 4 22.16 5.94-7.91 11.49-12.54 20.08-11.4l2.93 6.71-2.79-.42-1.4.88c-3.45 4.51-11.66 6.92-6.89 15z" fill="#f8123c"/><path d="m504.66 471.38c-2.63 10.8 4.38 17.22 11.72 22.9 7.52 5.82 15.8 10.7 23.75 16 12.82 8.54 14 15.45 4.64 27.48h-4.93c-.78-10.26-7.37-16-15.65-21.39a255.59 255.59 0 0 1 -29-22.35c-5.3-4.67-.45-18.79 6.47-21.15a32.29 32.29 0 0 0 3-1.41z" fill="#f8123c"/><path d="m552 456.74c-.38-8.82-6.51-14.23-12.64-19.34-5-4.17-10.83-7.39-16-11.45a7.73 7.73 0 0 1 -2.51-5.74c0-1 3.32-2.75 4.86-2.5 3.88.62 8 1.55 11.31 3.48 7.23 4.19 14.78 8.31 20.82 13.89 8.49 7.82 6.8 18.85-2.54 24.53z" fill="#f8123c"/><path d="m73.49 218.61c8.48-.05 11.13 3.17 8.11 9.53-2 4.21-5.4 7.83-8.42 11.52-1.87 2.3-4.49 4-6.27 6.4-3.57 4.72-9 5.56-13.81 1.77s-5.29-9-.94-13.21c5.47-5.26 11.24-10.23 17.13-15 1.27-1.07 3.59-.89 4.2-1.01z" fill="#f8271c"/><path d="m525 154.07c10.72 12.75 11.19 25.84 2.54 40-2.6 4.26-2.54 10-3.92 16.09-5.1-1.49-7.17-6.49-7-10.67a38.41 38.41 0 0 1 4.58-17.17c4.73-8.26 4.68-16 1-24.19.93-1.33 1.88-2.69 2.8-4.06z" fill="#f8123c"/><path d="m164.77 631.41c-9.73 0-10.88-1.18-11-11.43-.06-7.54 3.68-11.67 10.51-11.62 10.22.08 11.93 1.76 11.92 11.7.04 11.04-.2 11.32-11.43 11.35z" fill="#f8271c"/><path d="m500.85 721.87v7c0 5.29-2.79 7-8.11 7-5.12 0-6.15-2.3-6.65-6.62a79.34 79.34 0 0 0 -3.41-13.85c-1.25-4.08-1.83-8.39 2.79-10.06 4.15-1.51 9.81-3.18 12.37 2.57 1.93 4.31 2.52 9.2 3.71 13.82z" fill="#f81e12"/><path d="m292.27 48.3c-2.37-10.14 11.93-21.4 24.92-19.64 5.06 13.14-7.64 25.9-24.92 19.64z" fill="#c63450"/><path d="m283.45 90c7.56-1.59 15.37-4.75 20.51 1.18 3.59 4.14 3.71 11.85-1.38 15.87-3.18 2.51-9.64 3.84-13.32 2.43-9.55-3.64-4.08-12.48-5.81-19.48z" fill="#f82116"/><path d="m386.81 585.58c-8.24 0-10.74-2.74-11-11.54-.22-8.58 2.75-9.62 13.42-11 5-.65 9.41 4.86 9.41 10.66.03 7.77-4.08 11.89-11.83 11.88z" fill="#f81e12"/><path d="m129.78 33.45c2.43 19.5-1.7 24.94-19.18 23.26.65-6.61 1.07-13.26 2.16-19.8.23-1.36 2.88-3.11 4.58-3.31 4.14-.48 8.38-.15 12.44-.15z" fill="#f81e12"/><path d="m362.51 421.19c0 9-2.36 11.63-10.55 11.68-9.76.07-10.93-.82-10.89-8.29s4.35-11.14 12.76-11.15 8.69.24 8.68 7.76z" fill="#c63450"/><path d="m132.07 323.62c7.5.23 12.75-2.34 13.6-10.41 0-.08.41-.13-1.17.33l16.18 12-8.48 6.46c1.57 3 3.17 6 4.77 9.08-7.49-2.25-14-5.76-21.46 2.59l2.2-8.69c1.88-2.14 3.77-4.28 6.17-7z" fill="#ce0a0a"/><path d="m194.38 719.76c-2.2 6-3.86 11.56-6.33 16.71-.55 1.13-4.65 2-5.91 1.17-2.7-1.74-6.35-4.54-6.5-7.08-.35-6.08.88-12.53 7.23-15.88a9.49 9.49 0 0 1 7.21-.48c1.92.8 2.92 3.58 4.3 5.56z" fill="#c42c4a"/><path d="m70.39 770.48c7.5.24 12.74-2.33 13.58-10.4 0-.09.41-.14 1.35-.44 1.77 7.27 6.63 11.11 15.11 11.67l-10.05 7.62c1.59 2.94 3.23 6 4.86 9-7.44-2.1-14-5.76-21.34 2.5l2.1-8.59 6.16-7z" fill="#ce0a0a"/><path d="m552 456.74 3.35 2.87c-7.7 8.19-17.23 11.73-28.59 11.38-7.34-.23-14.7.23-22.06.39v.08a18.46 18.46 0 0 1 15.42-9.66c8.25-.53 16.58-.13 24.81-.83 2.46-.2 4.7-2.75 7.07-4.23z" fill="#f1526c"/><path d="m257.7 268.78c-3.93 4.92-3.93 4.92-4.22 21.66-8.34-6.29-16.85-6.41-25.49-2q2.17-7 4.36-14c3.22 1.7 5.67 6.71 10.24 3.12 4.29-3.37 5.5-7.85 2.62-12.87 5.55-2.69 9.35-.27 12.49 4.09z" fill="#af0b0b"/><path d="m554.46 808.24c-5.29-3.44-10.42-7.14-15.9-10.25-4.07-2.32-7.93-5.43-4.23-9.33 2.18-2.31 8.31-3 11.65-1.8 3.73 1.37 6.67 5.47 9.32 8.86 4.02 5.14 3.7 6.38-.84 12.52z" fill="#f8123c"/><path d="m388.56 334.83c1.2 5.62-.84 9-8.58 8.46-5.44-.41-10-.62-9.85-7.66.14-7.95 3.38-12 10.1-12 8.32-.03 8.32-.03 8.33 11.2z" fill="#f8271c"/><path d="m516.15 127.1-.9-2.79c3-.45 6.28-.28 8.88-1.51 2.9-1.36 6.81-3.71 7.24-6.15.41-2.25-3.2-5.19-5-7.82l-2.93-6.71c4 1 8.63 1 11.84 3.17 2.72 1.81 4.2 5.82 5.53 9.12 3.13 7.74-1.23 14.38-9.85 14.53-4.96.06-9.88-1.18-14.81-1.84z" fill="#f1526c"/><path d="m573.15 81.26c-5.18.52-10.44-1.49-8.9-6.86 1.24-4.36 6.08-9 10.49-10.82 3.53-1.44 10.28-1.46 9.78 6.79-.52 8.96-1.89 10.82-11.37 10.89z" fill="#c42c4a"/><path d="m471.78 270.23c-5.77-1.39-12.12-1.83-17-4.67-1.69-1-1.09-10.7.84-11.61 4.47-2.11 12.12-3.41 15.23-1s2.32 9.69 3.24 14.83z" fill="#c63450"/><path d="m141 111c-5.89 3.86-12.76 5.95-17.88.56-2.23-2.35-1.89-9 0-12.37 1.35-2.46 7.4-4.24 10.69-3.5 7.66 1.78 9.83 7.66 7.19 15.31z" fill="#c63450"/><path d="m539.84 537.76h4.93c-9.47 10.56-22.11 12.51-35.51 12.59-4.37 0-9.43-.6-10.19 5.76l-4.07-1.34c6.42-7.52 12.73-14.23 24.63-13.2 6.54.57 13.45-2.43 20.21-3.81z" fill="#f1526c"/><path d="m398.51 30.3c5.75.11 7.82 2.9 6.13 8.8-1.34 4.68-3 9.3-4.74 13.85a3.79 3.79 0 0 1 -3 1.82c-5-.46-9.79-6.35-9.51-11.31.46-8.64 4.39-13.29 11.12-13.16z" fill="#c42c4a"/><path d="m62 491.74c5.14-1.08 7 1.52 6.9 6.89-.17 9.31-2.31 13.75-7.17 13.61-7-.21-10-3.06-10-9.7-.05-8.54 2-10.85 10.27-10.8z" fill="#f82116"/><path d="m232.49 809.54c-5.92-.08-8.85-3.21-8.71-9.29.11-5.24 5-8.48 12.28-8.37 5.46.08 7.59 2.84 7.35 7.94-.31 6.18-4.28 9.81-10.92 9.72z" fill="#f8271c"/><path d="m67.55 311.29c-.34.59-.9 3-2.16 3.42-1.6.54-4.07-.07-5.63-1-5.08-3.09-10-6.43-14.77-10-1.17-.88-2.4-3.77-1.93-4.31 1.86-2.08 4.2-4.64 6.73-5.09 5.15-.92 17.54 10.63 17.76 16.98z" fill="#f8123c"/><path d="m52.33 155.84h14.5c-1.49 6.71-2.48 12.89-4.42 18.78-.62 1.9-5.08 4.59-5.49 4.25-2.53-2.07-5.91-4.77-6.19-7.54-.5-5.04.96-10.28 1.6-15.49z" fill="#c63450"/><path d="m232.35 274.45q-2.17 7-4.36 14c-.86-.48-2.47-1-2.45-1.42.29-4.17.85-8.32 1.34-12.47q2.7-7.2 5.41-14.38l7.45-13.75c4 10.93 10.39 17.58 22.43 16.45l1.36 2.54-5.83 3.34c-3.14-4.36-6.94-6.78-12.49-4.08-9-3.45-12.43-1.79-12.84 6.31-.06 1.16-.02 2.31-.02 3.46z" fill="#c71111"/><path d="m463.19 182.89c1.84-5.36 2.65-10.66 5.43-14.66 1.51-2.17 6.36-2.12 9.7-3.08.76 2.65 2.35 5.36 2.13 7.92-1 11.74-1.45 11.93-17.26 9.82z" fill="#c42c4a"/><path d="m262.6 200.25c-6.57.58-8.62-2.91-8.74-8.73-.15-6.77 4-8 9.59-8s9.9 1.7 10.33 7.8c.42 5.98-3.67 9.04-11.18 8.93z" fill="#f81e12"/><path d="m198.09 29.3 2.41-1.2c-1.31 4.51-2.81 9.71-4.41 15.21-4-4.12-9.46-3.49-15.14 1.13 1.84-6.74 1.48-12.16-6.94-16.53 8.51-.23 13.12-2.94 14.55-9.36a1.74 1.74 0 0 1 1.3-.08c.31.16.37.75.54 1.16q-2 6.95-4 13.91c-.33.52-.68 1-1 1.58a2.64 2.64 0 0 0 .49.39c.24-.58.49-1.17.74-1.75z" fill="#af0b0b"/><path d="m359.12 283c-.76 6.9.65 12.82-7.7 12.62-7.29-.18-9.19-1.94-9.24-9.11-.05-5.57.36-10.33 8.18-10 5.92.28 10.05 1.49 8.76 6.49z" fill="#f81e12"/><path d="m72.38 662.3h-11.47c-1.65-6-2.35-11.88 2.3-16.2 2.19-2 6.56-2.47 9.89-2.33 1 0 2.61 4.61 2.4 7-.33 3.76-1.94 7.44-3.12 11.53z" fill="#c63450"/><path d="m335.81 180.62c2.72 2.14 7.07 3.88 8 6.68 1.33 4 1.75 9.79-.29 13.16-3.45 5.67-8.64 1.17-12.22-1.2-1.45-1-1.63-5.06-1-7.37.9-3.39 3.06-6.46 5.51-11.27z" fill="#c63450"/><path d="m490.12 342.45c3.94-1.06 8-1.44 7.63 5.29s-5.19 10.42-12.64 10.78c-9 .43-6.76-7.08-6.94-10.53-.43-7.84 6.09-6.2 11.95-5.54z" fill="#c42c4a"/><path d="m123 423.25c-2 5-3.52 10.38-6.61 14.7-.68.95-8-1.13-10.56-3.52-1.68-1.56-1.69-7.15-.12-9.28 3.82-5.15 9.6-5.86 17.29-1.9z" fill="#c63450"/><path d="m125 202.24c-.6-8.86 3.79-16.37 11.77-19.61 1.67-.69 5.49-.35 5.73.35a10.23 10.23 0 0 1 0 7.05c-1.43 3.06-4.67 5.36-5.91 8.46-2.39 5.99-5.74 7.62-11.59 3.75z" fill="#f8123c"/><path d="m495 554.77 4.11 1.34v2.83c.32 1 .64 2 1 3 1 5.28 6.25 10.6-.42 15.8-4 3.14-7.38 2.66-8.66-2.12-1.73-6.44-3.72-13.23 1.57-19.26l2.35-1.52z" fill="#f8123c"/><path d="m280.16 615.81c-1.86-14.38-1.16-16 6.81-16.28 9.25-.34 10.25.61 10 9.48-.25 7.57-2.24 8.4-16.81 6.8z" fill="#c42c4a"/><path d="m362.43 806.31c.32 6.54.79 13-6.08 15.94-2.37 1-7.84 0-8.75-1.75-1.42-2.68-1-7 .09-10.12 2.58-7.1 8.48-5.94 14.74-4.07z" fill="#c63450"/><path d="m499.36 91.36 2.94-4.59 7.79-6.37-3.79-3.5c1.43-6.9-4.32-4.87-7.65-5.85 7.07-1.47 14.34-2.73 18.14 5.31 1.49 3.15 2.84 8.11 1.33 10.44-1.88 2.9-6.61 4.51-10.44 5.57-2.47.69-5.53-.6-8.32-1.01z" fill="#f1526c"/><path d="m425.83 496.46c-6 1.21-9-.94-8.95-7.13.07-5.2.92-9 7.7-8.89 5.37.1 9.32.65 9.13 7.31-.16 5.36-.36 10.1-7.88 8.71z" fill="#c42c4a"/><path d="m447.62 91.86c.12 5.43-.12 10.06-7.64 9.83-5.92-.18-8.53-2.45-8.3-8.33.28-7 2.76-9.25 9.79-9.52 6.8-.27 6.53 3.81 6.15 8.02z" fill="#f81e12"/><path d="m519.12 306.87-2.62-1.16c.37-.61.75-1.22 1.12-1.84l2.34-.14c2.76.62 5.67.88 8.24 1.93 5.82 2.38 7.9-.08 8.27-5.4.21-3 .52-5.93.79-8.89 3.26 3.61 2.41 10.45 9.26 11.24-.85 2.52-9 .75-4.1 6.65l-2.88 3.79 2.67 9.07c-2.48-2.14-5-4.28-7.32-6.3l-7 4.91c1.45-3.55 2.9-7.11 4.65-11.37z" fill="#ce0a0a"/><path d="m296.27 368c-1.94 5.87-2.61 10.07-8.65 9.88-5.59-.17-7.51-3.59-7.54-8.23s3.1-7.93 7.56-7.29c3.09.38 5.77 3.64 8.63 5.64z" fill="#f8123c"/><path d="m297.13 253.44c3.55-2.86 6.91-6 10.7-8.51 3.61-2.4 6.94-1.38 6.35 3.21-.43 3.43-2.26 8.66-4.69 9.44-3.68 1.19-8.43-.8-12.73-1.44.12-.9.24-1.8.37-2.7z" fill="#f8123c"/><path d="m48.7 389.67c.76 4.5-.51 7.07-5.91 6.83-4.81-.22-9.44-1.2-8.16-6.71.83-3.62 4.19-8.87 7.13-9.37 5.76-.98 7.74 3.84 6.94 9.25z" fill="#c42c4a"/><path d="m413.09 227.07c-3.83-1-8.48-1-11.18-3.24-1.57-1.31-1.27-7.42.48-9.13s8.33-2.56 9.46-1.17c2.38 2.9 2.58 7.51 3.68 11.42z" fill="#f8123c"/><path d="m411.54 654.71c1.13 11.39-.66 16.81-5.54 16.76-4.7-.05-8.4-1.07-7.65-7.25 1.07-8.7 3.54-10.81 13.19-9.51z" fill="#c42c4a"/><path d="m152.13 527.18c-2.7 1.69-5.21 4.26-8.15 4.88-4.36.91-6.5-2.15-6.41-6.24.11-4.56 2.56-8 7.36-7.18 2.66.44 4.86 3.48 7.27 5.34z" fill="#f8123c"/><path d="m292.15 698.79c1.71 2.4 4.27 4.6 4.93 7.26 1.1 4.37-2.28 6.45-6.21 6.59s-7.48-1.63-6.67-6.11c.49-2.7 2.83-5.08 4.35-7.6z" fill="#f8123c"/><path d="m318.92 504.93c.6 1.84 1.2 3.68 2.26 6.95-3.05-1.5-4.78-2.08-6.18-3.08-4.5-3.23-8.76-3.29-13.43-.13-1.42 1-3.86.49-5.83.67a1.77 1.77 0 0 1 .18-.59 2.22 2.22 0 0 1 .59-.38l11.82-12.55c2.29 2.89 4.45 5.9 7 8.59.6.68 2.35.37 3.59.52z" fill="#8a1616"/><path d="m379.16 135.11c.56 1.8 1.11 3.6 2 6.69-2.75-1.27-4.12-1.66-5.21-2.44-4.91-3.53-9.65-3.94-14.8-.26-1.2.86-3.45.33-5.21.43a1.67 1.67 0 0 1 .17-.6 2.49 2.49 0 0 1 .59-.38l11.87-12.55c2.29 2.89 4.46 5.89 7 8.59.6.69 2.36.41 3.59.52z" fill="#8a1616"/><path d="m44.69 59.5c3.17 5.72 5.66 12.43 15.84 8.21-4.92 5.22-9.92 8.42-7.85 15l-8.48-8.71q.26-7.25.49-14.5z" fill="#af0b0b"/><path d="m292.49 488.16c9.09.9 11.45-6.75 15.83-11.84q0 9 0 18.05z" fill="#f81e12"/><path d="m352.74 118.34c9.08.91 11.45-6.74 15.82-11.84q0 9 0 18z" fill="#f81e12"/><path d="m368.52 124.55q0-9 0-18c.75.77 1.91 1.43 2.19 2.34 1.94 6.32 6.18 9.28 12.93 9.21.79 0 1.59 1.71 2.39 2.63l-17.39 4z" fill="#c71111"/><path d="m308.28 494.36q0-9 0-18c.75.77 1.9 1.42 2.18 2.33 1.95 6.32 6.18 9.28 12.94 9.21.78 0 1.59 1.72 2.39 2.64l-17.39 4z" fill="#c71111"/><path d="m352.74 118.34 15.78 6.21.16.15c0 .44-.07.87-.11 1.31l-11.82 12.54c1.73-6.65 1.4-12.56-5.26-16.86-2.08-1.34-3.24-3.69 1.25-3.35z" fill="#c71111"/><path d="m292.49 488.16 15.79 6.21.16.15c0 .43-.08.87-.11 1.3l-11.82 12.55c1.74-6.66 1.38-12.56-5.28-16.87-2.1-1.36-3.23-3.68 1.26-3.34z" fill="#c71111"/><path d="m551.41 650.08c5.63-3.1 11.9-5.44 15-11.63l.92 1.8q-.42 6.22-.83 12.46c-.07.42-.14.83-.23 1.23l-2.49.32z" fill="#f81e12"/><path d="m368.57 126c0-.44.08-.87.11-1.31l17.39-4c-3.51 4.26-9 7.62-6.91 14.43-1.23-.14-3 .17-3.62-.51-2.54-2.71-4.68-5.71-6.97-8.61z" fill="#af0b0b"/><path d="m537.22 291.41c-.27 3-.58 5.92-.79 8.89-.37 5.32-2.45 7.78-8.27 5.4-2.57-1.05-5.48-1.31-8.24-1.93 10.21.07 12.2-8 15.56-16.14z" fill="#b50808"/><path d="m308.33 495.82c0-.43.07-.87.11-1.3l17.39-4c-3.52 4.26-9 7.62-6.91 14.43-1.24-.15-3 .16-3.63-.52-2.51-2.71-4.67-5.72-6.96-8.61z" fill="#af0b0b"/><path d="m44.69 59.5-.48 14.5a11 11 0 0 1 -1.14.12l-13.78-4-.54-1.59c7.25-.03 12.06-3.53 14.62-10.07a.72.72 0 0 1 .63-.06 9 9 0 0 1 .69 1.1z" fill="#f81e12"/><path d="m232.29 260.2q-2.72 7.19-5.41 14.38l-11.06-8.85 1.26-2.13z" fill="#af0b0b"/><path d="m542.17 322.16-2.67-9.07 2.88-3.79 1.41-1.2h.59.6l.16.12 1.07 2.13 1.71-2.18 4.52-1.26c-6.58 6.59-5.9 14.39-4 22.42 0 .15-.64.65-1 .63s-.68-.45-1-.7c0-3.15.59-6.68-4.26-7.06z" fill="#b50808"/><path d="m525 154.07c-.95 1.37-1.9 2.73-2.84 4.1l-10-15.34 4.07-2.61z" fill="#f1526c"/><path d="m563.82 654.26 2.49-.31q4.26 4.37 8.51 8.74l1.42 5.32c-6.44-5-12.07-6.22-17.92-2.35q2.74-5.66 5.5-11.4z" fill="#8a1616"/><path d="m527.88 320.77 7-4.91c2.36 2 4.84 4.16 7.32 6.3l.07.06 1.44 5.41c-5.62-4.84-11.42-2.65-17.22-.41l1.38-6.4z" fill="#b50808"/><path d="m43.07 74.11a11 11 0 0 0 1.14-.11l8.47 8.67 1.92 5.55c-7-5.38-12.87-6-18.83-2.65z" fill="#8a1616"/><path d="m43.07 74.11-7.3 11.45c-.53-.4-1.57-1-1.5-1.18 2.21-6.06-.35-10.48-5-14.23z" fill="#c71111"/><path d="m519.12 306.87 13.41 2.53c-1.75 4.26-3.2 7.82-4.65 11.37v.05l-3.34 1.31c3.11-6.75-3.88-10.13-5.42-15.26z" fill="#b50808"/><path d="m563.82 654.26q-2.76 5.7-5.5 11.4v-.07l-1.56-.21c.93-6 .48-11.53-5.31-15.3z" fill="#c71111"/><path d="m566.54 652.71q.42-6.23.83-12.46c1.64 5.14 5.73 7.35 10.7 8.51l-.11 3.31-.1-.05z" fill="#c71111"/><path d="m198.09 29.3-11.47 4.46-.26-.22q2-7 4-13.91l2.65 7.65z" fill="#ce0a0a"/><path d="m543.79 308.1-1.41 1.2c-4.88-5.9 3.25-4.13 4.1-6.65l10.3 1.12-4.34 3.16-4.52 1.26-2.78.05-.16-.12z" fill="#8a1616"/><path d="m566.54 652.71 11.32-.69q-1.51 5.34-3 10.67-4.25-4.38-8.51-8.74c.05-.41.12-.82.19-1.24z" fill="#af0b0b"/><path d="m132.07 323.62 11.81 4.38c-2.4 2.71-4.29 4.85-6.17 7-2.31-3.45-4.61-6.89-6.89-10.35a.58.58 0 0 1 .11-.57 7.47 7.47 0 0 1 1.14-.46z" fill="#af0b0b"/><path d="m70.39 770.48 11.8 4.36-6.16 7q-3.45-5.16-6.88-10.34a.6.6 0 0 1 .1-.58 7.47 7.47 0 0 1 1.14-.44z" fill="#af0b0b"/><path d="m524.5 322.13 3.34-1.31-1.38 6.4-3.33 2.55z" fill="#ce0a0a"/><path d="m543.68 327.63-1.44-5.41c4.85.38 4.23 3.91 4.26 7.06z" fill="#ce0a0a"/><path d="m556.72 665.38 1.56.21-1.36 1.17z" fill="#8a1616"/><path d="m500.05 561.9c-.33-1-.65-2-1-3 .35 1.02.67 2.01 1 3z" fill="#f1526c"/><path d="m578 652.07.11-3.31z" fill="#af0b0b"/><path d="m494.89 554.8-2.35 1.52z" fill="#f1526c"/><path d="m517.58 303.91-.32-.19z" fill="#b50808"/><path d="m203.77 151.25-6.71-7.25 2.5-2.2 6.74 7.33z" fill="#fefdfd"/><path d="m526.33 108.83c1.84 2.63 5.45 5.57 5 7.82-.43 2.44-4.34 4.79-7.24 6.15-2.6 1.23-5.89 1.06-8.88 1.51-4.77-8.1 3.44-10.51 6.89-15l1.4-.88z" fill="#fefdfd"/><path d="m506.3 76.9 3.79 3.5-7.79 6.37c-4.62-5.59 1.11-7.18 4-9.87z" fill="#fefdfd"/><path d="m523.54 108.41-1.4.88z" fill="#f1526c"/><g fill="#ce0a0a"><path d="m232.35 274.45c0-1.15 0-2.3 0-3.44.41-8.1 3.8-9.76 12.84-6.31 2.88 5 1.67 9.5-2.62 12.87-4.57 3.59-7-1.42-10.22-3.12z"/><path d="m186.62 33.76c-.25.58-.5 1.17-.74 1.75a2.64 2.64 0 0 1 -.49-.39c.29-.54.64-1.06 1-1.58z"/><path d="m545.14 308.24 2.78-.05-1.71 2.18z"/><path d="m543.79 308.1h1.19-.6z"/></g></g></svg>