<svg viewBox="0 0 595.28 841.89" xmlns="http://www.w3.org/2000/svg"><path d="m595.28 131.68v710.21h-595.28v-841.89h595.28v116.27l-6.52-4.27c-1.42 6.57 0 10.47 6.52 11.23v2.8l-4.18 2.46zm-373 322 6.6-5.51c4.48-5.15 4.93-10.72.21-15.62-3.48-3.6-8-6.23-12.09-9.3a70.82 70.82 0 0 0 -7.86-3.43c-7.34-2.25-8-3.58-4.52-9.84l22.93-13c-4-1.89-6.8-4.17-9.78-4.45-9.95-.94-18.55 3.15-26.27 8.75-5 3.62-3.83 11.95 1.71 15.75l10.47 8.15 11.59 3.46c4.79 4.28 4.49 7.38-1.8 12.79-4 3.45-9.13 5.89-12.51 9.8-7 8.13-4.35 16.49 6.72 23.56 7.44 7.13 7.15 11.83-1.21 18.6a18.7 18.7 0 0 0 -1.77 1.17c-4.6 4.94-6.9 11.23-2.83 16.57 5.45 7.17 9.23 13.91 8.43 23.32-.2 2.46 6.07 7.91 8.92 7.63 5.6-.55 4.11-6.44 3.37-10.36-.48-2.56-2.34-5-3.89-7.23-7.38-10.86-7.61-14 2.51-22.43 8.19-6.86 5.65-16.07-1.92-21.82-3.16-2.41-6.47-4.62-9.71-6.92a1.42 1.42 0 0 0 -.26-1.21 1.75 1.75 0 0 0 -.22-1.32c0-1 0-2 .07-3l12.88-14zm-38.54-240.88c.71 4.45 1.43 8.89 2.23 13.92l3.75.2-.17 2.62-14.67 16c12.53 2.27 17.64-.21 22.88-10.48 5-8.68 3.74-21.32-2.8-27.72-.66-13.72 6.42-24 15.38-33.56 2.17-2.31 3.16-5.68 4.69-8.56.4-.91.81-1.83 1.22-2.74q.81-2.94 1.63-5.88c3.72-4.16 7.55-8.23 11.07-12.55.74-.89.33-2.68.44-4.06a14.5 14.5 0 0 0 2.71-2.78c3.79-6.88 5.94-15.39 11.45-20.43 11.13-10.16 7.89-27.74-1.37-35.45-5.18-4.33-10.18-3.84-15.34 2.53l8.43 5.72 2.56 13.87c-14.06-6.34-22.83-5.73-28.83 2.95-2.14 3.14-1.56 8.25-1.53 12.46 0 .86 3.15 1.7 4.85 2.54l2.77.6 9.37 6.33c-.14 1.25-.4 3.71-.66 6.17-4.4-1.49-9.86-1-12-6.66-.3-.8-2.76-1.32-4.1-1.13-3.38.47-6.9 1-10 2.31s-5.56 3.78-8.31 5.73c-2.65 3.54-6.89 6.8-7.61 10.67-1.42 7.7 4.19 11.29 16 11.66l8.44 2.34a6.55 6.55 0 0 1 .6.58q-.15 4-.28 8.11c-3.6 3.69-7 7.55-10.82 11-7.11 6.56-11.79 14.16-11.89 24v2.76zm160.69 78.42c.53 1.81.61 4.76 1.69 5.17a6.49 6.49 0 0 0 5.68-1.29c1.75-1.8 2.48-4.55 3.64-6.89 0-1.84.62-3.9 0-5.47-1.12-2.71-3-5.12-4.58-7.66l-6.46 5.14c-4.92.57-6.55 3.86-5.54 7.88.36 1.4 3.64 2.09 5.58 3.1zm143.35-207.22 2.84 12.48.33 1.56c-.64 6.07 1.84 10.66 7 14l1.24 1.28 5.64 14.38c.89 12.1 9.94 19.86 16.21 29.1 2.07 9.77 2.13 19-3.94 28-6.3 9.36-4.27 18 4.57 25.58 2.18 1.88 4.58 3.5 6.88 5.24-5.61-10.33-5.75-17 0-26.78a42.46 42.46 0 0 0 4.5-10.84c1.86-7.32-1.63-16.64-6.7-19.38q-5-9.19-10-18.38l2.43-5.41-5.27-.29a2.87 2.87 0 0 1 -.13-1.2c.8-7.25 5.74-3.7 9.6-3.91v7.5c3.56-2 6.29-4.33 9.41-5.06 5-1.19 7.32-3.71 6.94-8.66l.06-11.13c-.24-7-8.38-13.82-16.62-14-9.46-.17-9.46-.17-8.15-8.71l.08.1 1.59-1.47.82-1.37c6.09-2.41 5.85-7.6 4.61-12.21-1.54-5.72-6.86-4.38-11.28-4.14-.67-4.54-3-3.45-5.53-1.52l-7.14-.12-7.23-5.69 11.09-12c-6-7.15-8.11-7.23-13.93-.55l-5.53 5.7c-6.12 7.09-6.12 15.82 0 22.29l5.6 5.58zm-157.71 110.38.35.34c2 2.16 3.71 5.09 6.23 6.18 1.37.6 5-1.4 6.15-3.15 4.13-6.43.05-14.17-8.41-15.89-.6 1.86-1.2 3.78-1.81 5.7-.86 1.17-1.71 2.35-2.57 3.53l-2.11 1.32zm-246.79 567.71c-3 1-6.23 1.64-9 3.14-2 1.13-3.44 3.38-5.12 5.14l5.43 2.84c.35 13-1.58 11 11.73 11a21.87 21.87 0 0 0 2.78-.3h3c.73-6.34 1.4-12.11 2-17.2l-8.24-4.63-.86-2.08zm418.72-217.19c-.47.48-.95 1-1.43 1.42-11.82 3.4-16.8 13.17-12.84 26.4.88 3 4 7.73 5.63 7.55 3.17-.34 6.67-3.1 8.77-5.8 1.29-1.66.89-5.28.08-7.64-2.11-6.18-6.33-12.23 1.27-17.66 11.93-.95 24.51.52 34.26-8.68a16.73 16.73 0 0 0 12.49-13.69c1.36-7.49-3.18-13.3-9.1-17.74-11.17-8.37-22.68-16.33-33.62-25-6.26-4.95-5.25-11 1.6-14.73 6.87.09 13.75.51 20.59.21a33.54 33.54 0 0 0 25.51-12.92c8.74-4.85 10-16.61 1.11-23.91-8-6.52-17.72-11-26.79-16.27-5.37-3.1-9.4-1-13.28 4.29 7.37 5.43 14.55 10.58 21.57 15.94 6.69 5.1 12.57 10.77 12 20.07-2.42 1.12-4.78 3-7.27 3.21-5.2.42-10.48-.17-15.72-.12-8 .07-15.85.53-21.61 7.09-7.66 2.31-12.56 7.6-14.18 14.93-1.75 7.87 2.35 14.12 8.7 18.64 7.3 5.19 15.31 9.48 22.39 14.93 7.78 6 17.61 11.25 14.33 23.78-1.64-.11-3.28-.35-4.91-.3-9.53.3-19.43-1.43-27.91 4.76zm-358.42-229.61c-4.28 2.27-8.94 4.1-12.62 7.08-1.11.9.51 5 .81 7.62a3.3 3.3 0 0 1 -.21 2c-3.77 5.7 1.19 8.48 3.81 12.38 4.73-2.36 8.71-5.81 14.33-2.89 1.29.67 5.35-.86 5.94-2.25a111.24 111.24 0 0 0 4.83-16c.18-.69-1-2.22-1.89-2.59-3.59-1.5-7.32-2.69-11-4zm282.42 76.92-8.43-4.38c-1-4.09 1.84-5.31 4.8-7.26 6.25-4.1 12.05-10.07 9.94-17.55-1.39-4.95-7.29-8.81-11.53-12.79-.85-.8-3.34.07-5.08.16.34 1.48.16 3.48 1.1 4.33 3.93 3.59 1.57 6.15-1.07 8.77-3 3-6.27 5.73-9 8.94-5.29 6.23-1.32 18.21 6.36 19.77l11.64 8.69c0 1.06-1.09 4.52.21 6.47a103 103 0 0 0 12.34 14.58c.48.5 3.67-1.51 4.47-1.86-1.26-5.36-1.83-9.59-3.27-13.52-2.24-6.21-4.84-12.44-12.48-14.35zm98.14-64.37c7.45-.57 12.83-1.11 18.23-1.33 2-.09 5.5 1.38 5.9.73 1.18-1.9 2.33-5.37 1.34-6.7-3.63-4.86-.5-6.94 2.8-9.56 1.54-1.22 2.56-3.08 3.81-4.65-1.88-1.17-3.76-2.32-5.62-3.51-2.89-1.85-5.76-3.75-8.66-5.6-2-1.29-4-3.38-6.12-3.48-1.57-.08-3.21 2.51-4.92 3.79-2.44 1.82-4.9 3.61-7.47 5.24-2.17 1.38-4.51 2.53-6.78 3.77 1.44 2.22 2.4 5.63 4.41 6.39 4.54 1.72 4.06 3.71 2.84 7.44-.9 2.76.19 6.12.27 7.47zm-285.5-77.31-2.24-.05c-3.26 8.76-8.83 14.35-19.54 13.83 7.07 6.08 8.81 13.06 7.85 21-.08.62 3 2.43 3.36 2.16 7.2-5.69 14.2-2.47 22.23 1.17-.44-3.71-1.49-6.5-.9-8.9.92-3.75 2.81-7.31 4.58-10.81.71-1.4 2.21-2.43 3.36-3.63-1.56-.86-3.12-2.46-4.68-2.46-7 0-11.07-3.32-12.77-9.8a13 13 0 0 0 -1.25-2.51zm317.85 417c7.51-5.4 13.86-5.66 21.37-.85-3.93-8.6.85-14.14 7.75-21.85-10.68 1.74-15.3-3.36-18.73-11.34-1.81 2.22-3.25 3.2-3.44 4.37-.84 5.17-4.08 6.58-9 6.95-5.44.41-4.1 3.61-1.47 6.05 3.11 2.89 4.3 5.78 2.65 9.91-.57 1.4.38 3.38.87 6.75zm-497.2-599.31-14.67-10.91-14.53 10.4 5.91 17.43h18.49c1.39-4.91 3.05-10.78 4.8-16.92zm260.51 417.89c-8.42 2.08-11.26-5.55-15.43-11.3-2.67 3.74-4.17 7.29-6.88 9.21s-6.5 2.05-11.9 3.55c9.62 4.38 8.68 12.18 9.22 20.86 7.15-7.58 13.53-4.5 18.7-1.83zm-264.29-239.68a40.18 40.18 0 0 0 4.27 0c5.22-.89 20.29-18.57 20.22-23.68 0-5.31-4.41-7.92-8.76-4.68a201.29 201.29 0 0 0 -19.11 16.07c-1.82 1.73-3.22 5.76-2.37 7.77 1.02 2.39 4.64 3.72 5.75 4.52zm324.24-126.11-15.36-11.07c-2.3 5-5.88 10.34-15 9.73 8.38 4.27 8 11 7 16.48h17.81c1.71-4.73 3.7-10.11 5.55-15.14zm-215.7 487.68c-9.11-.11-11.75 2.3-11.77 10.77 0 7.17 4.16 11.38 11.31 11.37 6.75 0 11.16-4.48 11.31-11.48.19-8.79-1.57-10.51-10.85-10.66zm220.73-25.23c10.59.12 12.1-1.07 12.25-9.67.11-6.27-5.21-12.31-11-12.45-6.68-.17-12.79 5.37-12.66 11.47.18 6.79 4.27 10.61 11.41 10.69zm114.16 138.3 1-.28c-1.25-4.35-2-8.94-3.91-13-1.84-3.82-5.63-5.8-10.07-3.71s-4.39 5.88-3.16 10.08a50.32 50.32 0 0 1 2.22 11.4c.24 4.75 1.15 8.48 7 8.18 5.4-.29 7.15-3.7 6.92-8.52-.05-1.32 0-2.72 0-4.11zm-195-623.49c-.07-6.86-4-10.68-11-10.74q-11.56-.1-11.6 10.85c0 6.37 5.68 11.49 12.58 11.29 5.08-.11 10.08-5.8 9.99-11.36zm224.59 694.98c6.75 4.13 13.36 8.45 20.27 12.22 1.78 1 6.12 1 6.52.17 1.15-2.37 2-6 .95-8.05a26.21 26.21 0 0 0 -8.18-9.44c-8.61-5.79-15.42-6.14-19.56 5.1zm-489.48-491.67c6.65 4.31 12.75 8.59 19.22 12.26 1.79 1 5.85 1.12 6.77 0 1.44-1.75 2.28-5.58 1.25-7.32a40.77 40.77 0 0 0 -9.13-10.49c-8.34-6.86-14.16-4.97-18.11 5.55zm80.81-269.72c-1.94 1.74-5.17 4.26-7.94 7.19-4.68 4.94-1.23 16.16 5.47 17.29 1.74.29 4.77-1.35 5.7-2.94a76.78 76.78 0 0 0 5.42-12.55c1.67-4.61-1.82-9.16-8.65-8.99zm11.14 176.59c2-4.5 3.18-8 5.11-11.08s5-5.55 6.95-8.67c.86-1.39.89-4.32-.06-5.46a8.59 8.59 0 0 0 -5.92-2.81c-4.19 0-13 9.37-14.44 13.9-2.37 7.36 4.14 9.22 8.36 14.12zm54.25 530.39c1.93-5.4 4-10.76 5.74-16.22 1.18-3.75 1.3-7.79-3.36-9.34-4-1.31-7.24-.1-9.31 4.09-6.82 13.86-4.45 17.19 6.97 21.47zm-9.25-710.24c.79 3.51 1.55 8 2.93 12.23.36 1.13 2.63 2.37 4 2.35 4.4-.09 8.79-.74 13.38-1.19l3.42-13.1-11.68-8.2zm112.76 13.75c4.28 4.62 8.17 7.91 14.43 5.48s12.28-9.72 11.81-15.14c-.17-2-2-3.87-3-5.8a48 48 0 0 0 -4.87 2.8c-2.23 1.63-4.15 3.67-6.43 5.21-3.76 2.51-7.7 4.79-11.94 7.45zm107.75 13.2c2.51-7.52 4.57-12.63 5.81-17.93.51-2.16 0-5.79-1.41-6.83-1.78-1.27-6.7-1.55-7.43-.46-3.25 4.87-6.86 10.24-7.47 15.74-.28 2.5 6.1 5.7 10.5 9.48zm-337.51 122.01c1.64-5.06 3.8-10 4.64-15.05.43-2.58-1.52-5.53-2.4-8.31-3.08 1.16-7.36 1.45-9 3.64-6.24 8.15-3.78 15.04 6.76 19.72zm218.1 191.13c.5 5.17 1.68 9.82 8.43 9.95 6 .11 9.7-3.64 9.6-9.68-.09-5.74-3.92-10-9.23-9.21-4.9.68-9.22 2.77-8.8 8.94zm17.81-115.8c.91 1 1.68 2.27 2.83 2.89 3 1.6 6.84 4.75 9.14 3.95 5.19-1.78 9.15-6.2 8.14-12.26-.38-2.23-2.83-4.6-5-5.88-1.12-.67-4.08.37-5.42 1.51-3.28 2.81-6.14 6.13-9.69 9.78zm168.09-.85c-5.14.41-9.4 2.2-8.86 8.26.41 4.68 2.81 9.24 8.19 8.25 3.32-.62 8.26-4.27 8.49-6.88.34-3.98.11-10.53-7.82-9.63zm-320.68 264.29a8.33 8.33 0 0 0 -8.55 7.81 8.45 8.45 0 0 0 8.84 8.72c4.93-.07 9.39-1.59 8.95-7.28-.34-4.39-1.32-9.44-9.24-9.25zm139 188.92c-.34 6.22 3.27 9.48 8.48 9.15 5-.32 8.35-4 8.23-9.5-.13-5.69-4.2-7.56-9-7.63-5.39-.07-8.45 2.68-7.72 7.98zm-161.32-280.92c-1.18-1.19-2.9-4.05-5.41-5.13-3.17-1.38-11.49 5.74-10.74 9.82.57 3.07 3.73 6.66 6.7 8.06 3.57 1.69 8.62-4.65 9.45-12.75zm329.23-334.09c-2.69-3.31-4.46-7.27-6.24-7.28a13.76 13.76 0 0 0 -9.07 4 10.81 10.81 0 0 0 -2.36 8.58c.85 3.73 3.89 8.1 8.55 5.33 3.58-2.1 5.74-6.52 9.12-10.63zm-34.92 129.24c-.24-5.32-1.83-9.19-7.54-9.53-3.92-.24-9.07 5.21-9 9.23 0 4.49 4.5 8.21 9.51 8.22 5.96.02 6.56-4.07 7.03-7.92zm-346.85 444.93c2.5-6.1 4.66-10.28 5.82-14.72.46-1.74-.74-5.08-2.19-5.82-1.87-1-6.19-.93-6.93.23-2.38 3.71-4.76 8.12-4.81 12.28-.03 2.31 4.56 4.7 8.11 8.03zm495.83-591.6c3.38 4.48 7.3 8.13 13.59 5.77 6-2.25 5.46-7.55 4.86-12.38a5.48 5.48 0 0 0 -3.22-3.67 6.15 6.15 0 0 0 -4.76 1.16c-3.46 2.67-6.6 5.71-10.47 9.12zm-67.76 273.08c-4.48-7.41-9.54-6.06-16.61.91-2.66 2.63-2.78 4.77.17 7.59 5.82 5.56 7.32 5.58 11.63-1.15 1.6-2.49 3.28-4.96 4.81-7.35zm-156.1 78.39c1.78 1.28 3.73 2.21 5 3.7 2.86 3.3 5.53 5 9.25 1.06s6.73-8.11 2.95-13.42c-2-2.82-4.52-3.74-7.48-.4-2.72 3.09-6.04 5.68-9.72 9.06zm-67.71-231.59c-1.72-5.45-5.4-9.62-10.85-9-3 .31-6.56 4.38-8 7.57-2.22 4.95 3.42 5.88 6.31 7.32 6.39 3.11 9.07-2.41 12.54-5.89zm208.84-19.1c-3-3-4.6-5.72-6.95-6.68-2.95-1.2-12.09 6.88-10.8 9.7 1.45 3.19 5.05 5.45 7.71 8.11zm-69.49 484c-1.23-1.27-3-4.63-5.11-4.83s-4.63 2.64-6.51 4.58c-1 1-.62 3.22-1.48 4.48-3.71 5.47 1 7.88 4.36 9.62 1.11.57 5-2.64 6.61-4.84 1.37-1.91 1.24-4.91 2.13-9.05zm-43.28-322.3c3.57 2.71 6.49 6.69 9.34 6.63 3.15-.06 7.38-3.18 9-6.11 2.32-4.08 2.14-9.35-3-12.07-2.06-1.09-6.3-1.57-7.41-.4-3.14 3.35-5.23 7.7-7.93 11.95zm-315.32 157.63c1.53 16.84 1.53 16.84 11.61 18.09.18-5.64 1.07-11.25 0-16.47-.27-1.21-7.27-1.08-11.61-1.62zm242.47 115.15c0-6.42-3.28-10.08-9.15-9.93-5.56.13-8.3 3.71-8.19 8.5.1 4.53.95 9.58 7.61 9.73 5.72.13 9.73-3.28 9.73-8.3zm128.53-128.06c-5.62-1.23-7.94 2.34-7.94 7.34s2.24 8.93 8.56 8.85c5.52-.07 8.3-2.38 8.51-7.91.22-6-2.6-8.6-9.13-8.28zm-61.37 330.5c-3.51-3-6.81-6.26-7.08-6-3.76 3.13-7.48 6.5-10.17 10.49-.44.65 4.14 4.53 6.41 6.92zm-224.39-705.28c.34-5.56-1.73-8.86-7.58-8.78-5.31.06-8.86 2.79-8.81 7.9s2.54 8.59 8.78 8.53c5.79-.05 8.31-2.35 7.61-7.65zm-106.71 285.86c4.36 2 7.9 3.88 11.66 5.08.43.13 2.74-3.33 3.06-5.3.79-4.95.44-9.74-6.49-11.33-2.23 3.15-4.61 6.5-8.23 11.55zm199.77 415.6c2-1.66 3.19-2.73 4.47-3.72s2.88-2.12 4.3-3.15c-4.51-6.62-7.57-6.5-15.78.64z" fill="#fdfefd"/><path d="m595.28 123.27c-6.57-.76-7.94-4.66-6.52-11.23l6.52 4.23z" fill="#fbf9e2"/><path d="m595.28 131.68-4.18-3.15 4.18-2.46z" fill="#fbf9e2"/><path d="m536.45 539.23c3.27-12.53-6.56-17.81-14.34-23.78-7.11-5.45-15.11-9.74-22.39-14.93-6.35-4.52-10.45-10.77-8.7-18.64 1.62-7.33 6.52-12.62 14.18-14.93l3.92 2.4c-6.85 3.73-7.86 9.79-1.6 14.74 10.94 8.64 22.45 16.6 33.62 25 5.92 4.44 10.46 10.25 9.1 17.74a16.73 16.73 0 0 1 -12.49 13.69z" fill="#f3ae9a"/><path d="m235.27 89.58-8.43-5.72c5.16-6.37 10.16-6.86 15.34-2.5 9.26 7.71 12.5 25.29 1.37 35.45-5.51 5-7.66 13.55-11.45 20.43a14.5 14.5 0 0 1 -2.71 2.78c-.91-2-2.37-3.93-2.63-6a103.48 103.48 0 0 1 -.29-11.29c.05-1.68.11-3.36.16-5 .79-5.87-.82-10.34-7.76-12.35-.37 2-.68 3.75-1 5.47l-2.51-5.15c-5.93 2.62-7.17 5-5.38 10.1.67 1.92 1.54 3.77 2.33 5.65-1.7-.84-4.84-1.68-4.85-2.54 0-4.21-.61-9.32 1.53-12.46 6-8.68 14.77-9.29 28.87-2.91l-2.56-13.87 5.3-4.06-2.6-1.81zm6.28-.15v20.51l2.19.56a27.28 27.28 0 0 0 1.13-4.44c.23-2.58-.79-5.77.41-7.67 2.9-4.57-.14-5.96-3.73-8.96z" fill="#f6e092"/><path d="m209.6 473.27c3.24 2.3 6.55 4.51 9.71 6.92 7.57 5.75 10.11 15 1.92 21.82-10.12 8.48-9.89 11.57-2.51 22.43 1.55 2.27 3.41 4.67 3.89 7.23.74 3.92 2.23 9.81-3.37 10.36-2.85.28-9.12-5.17-8.92-7.63.8-9.41-3-16.15-8.43-23.32-4.07-5.34-1.77-11.63 2.83-16.57a18.7 18.7 0 0 1 1.77-1.17c8.36-6.77 8.65-11.47 1.2-18.6z" fill="#5cc3d2"/><path d="m524.17 327.84c-.08-1.35-1.14-4.71-.24-7.47 1.22-3.73 1.7-5.72-2.84-7.44-2-.76-3-4.17-4.41-6.39 2.27-1.24 4.61-2.39 6.78-3.77 2.57-1.63 5-3.42 7.47-5.24 1.71-1.28 3.35-3.87 4.92-3.79 2.1.1 4.11 2.19 6.12 3.48 2.9 1.85 5.77 3.75 8.66 5.6 1.86 1.19 3.74 2.34 5.62 3.51-1.25 1.57-2.27 3.43-3.81 4.65-3.3 2.62-6.43 4.7-2.8 9.56 1 1.33-.16 4.8-1.34 6.7-.4.65-3.86-.82-5.9-.73-5.4.22-10.78.76-18.23 1.33z" fill="#f7de8d"/><path d="m238.64 250.53a13 13 0 0 1 1.25 2.54c1.7 6.48 5.73 9.78 12.77 9.8 1.56 0 3.12 1.6 4.68 2.46-1.15 1.2-2.65 2.23-3.36 3.63-1.77 3.5-3.66 7.06-4.58 10.81-.59 2.4.46 5.19.9 8.9-8-3.64-15-6.86-22.23-1.17-.35.27-3.44-1.54-3.36-2.16 1-8-.78-14.95-7.85-21 10.71.52 16.28-5.07 19.54-13.83z" fill="#5cc3d2"/><path d="m549.8 456.77c.6-9.3-5.28-15-12-20.07-7-5.36-14.2-10.51-21.57-15.94 3.88-5.29 7.91-7.39 13.28-4.29 9.07 5.23 18.8 9.75 26.79 16.27 8.94 7.3 7.63 19.06-1.11 23.91z" fill="#f2b09d"/><path d="m209.6 473.27-1.91 1.47c-11.06-7.07-13.74-15.43-6.71-23.56 3.38-3.91 8.49-6.35 12.51-9.8 6.29-5.41 6.59-8.51 1.8-12.79l6.23-.88-5.39-4.32a1.61 1.61 0 0 1 .89-.16c4.07 3.06 8.61 5.69 12.09 9.29 4.72 4.9 4.27 10.47-.2 15.62l-6.61 5.51-.23.12c-7 2.28-11.9 6.42-12.88 14l-.06 3c-.14.15-.43.36-.4.43a5.85 5.85 0 0 0 .61.89 1.42 1.42 0 0 1 .26 1.18z" fill="#5ac1d2"/><path d="m413.13 392.2c-7.68-1.56-11.65-13.54-6.36-19.77 2.72-3.21 6-5.95 9-8.94 2.64-2.62 5-5.18 1.07-8.77-.94-.85-.76-2.85-1.1-4.33 1.74-.09 4.23-1 5.08-.16 4.24 4 10.14 7.84 11.53 12.79 2.11 7.48-3.69 13.45-9.94 17.55-3 1.95-5.78 3.17-4.8 7.26l-8-2.26 4 6.13z" fill="#f7de8d"/><path d="m556.49 667.52c-.5-3.37-1.44-5.35-.88-6.76 1.65-4.13.46-7-2.65-9.91-2.63-2.44-4-5.64 1.47-6.05 4.93-.37 8.17-1.78 9-6.95.19-1.17 1.63-2.15 3.44-4.37 3.43 8 8 13.08 18.73 11.34-6.9 7.71-11.68 13.25-7.75 21.85-7.5-4.81-13.85-4.55-21.36.85z" fill="#f1b1a0"/><path d="m514.58 89.36c-1.31 8.54-1.31 8.54 8.15 8.71 8.24.14 16.38 7 16.62 14l-8.08-6.91-2 .18c6 12.84-4 15.51-12.18 19.7 8.31 3.56 15.53 3.61 22.23-1.84.38 5-1.89 7.47-6.94 8.66-3.12.73-5.85 3.08-9.41 5.06v-7.5c-3.86.21-8.8-3.34-9.6 3.91.09-3.43.17-6.86.3-12-4.48-3.55-2.33-7.09 14-17.63-6.35-5-12.41-2.44-18.47 0 .51-2.39 1-4.78 1.68-7.83h-9.38c-.39 2.75-.77 5.38-1.14 8q-1.36-2.96-2.69-5.87l-1.26-5.79c.45-.87.9-1.74 1.34-2.61z" fill="#fbf0e9"/><path d="m59.29 68.22c-1.75 6.14-3.41 12-4.8 16.92h-18.49l-5.91-17.43 14.53-10.4z" fill="#f1b1a0"/><path d="m319.8 486.11-6.29 20.49c-5.17-2.67-11.55-5.75-18.7 1.83-.54-8.68.4-16.48-9.22-20.86 5.4-1.5 9.27-1.69 11.9-3.55s4.21-5.47 6.88-9.21c4.17 5.75 7.01 13.38 15.43 11.3z" fill="#f0b2a0"/><path d="m509.18 103.59c6.06-2.41 12.12-5 18.47 0-16.34 10.54-18.49 14.08-14 17.63-.13 5.18-.21 8.61-.3 12a2.87 2.87 0 0 0 .13 1.2l2.84 5.7q5 9.19 10 18.38c2.18 4.32 5 8.66.38 12.61-1.94-4.87-3.83-9.61-5.73-14.36-6.27-9.24-15.32-17-16.21-29.1-.09-3-.11-6-.31-9-.24-3.46-.66-6.91-1-10.36l1.59-1.58 4.07-3.12z" fill="#f0b2a0"/><path d="m521 156.82c1.9 4.75 3.79 9.49 5.73 14.36 4.6-4 1.8-8.29-.38-12.61 5.07 2.74 8.56 12.06 6.7 19.38a42.46 42.46 0 0 1 -4.52 10.86c-5.77 9.8-5.63 16.45 0 26.78-2.3-1.74-4.7-3.36-6.88-5.24-8.84-7.62-10.87-16.22-4.57-25.58 6.05-8.99 5.99-18.18 3.92-27.95zm9.67 19.24-2.15-.26c0 2.54-6.51 5 .72 7.84.5-2.64.97-5.11 1.43-7.58z" fill="#efb4a6"/><path d="m193.24 417c-5.55-3.79-6.71-12.12-1.72-15.74 7.72-5.6 16.32-9.69 26.27-8.75 3 .28 5.77 2.56 9.78 4.45l-22.91 13q-2.49 3.63-5 7.28l-.46.46z" fill="#5cc3d2"/><path d="m55.51 246.43c-1.11-.8-4.73-2.13-5.73-4.52-.85-2 .55-6 2.37-7.77a201.29 201.29 0 0 1 19.11-16.07c4.35-3.24 8.72-.63 8.76 4.68 0 5.11-15.06 22.79-20.24 23.66a40.18 40.18 0 0 1 -4.27.02z" fill="#f6e090"/><path d="m379.75 120.32c-1.85 5-3.84 10.41-5.58 15.14h-17.81c1-5.49 1.39-12.21-7-16.48 9.14.61 12.72-4.78 15-9.73z" fill="#f1b1a0"/><path d="m164.05 608c9.28.11 11 1.83 10.85 10.66-.15 7-4.56 11.47-11.31 11.48-7.15 0-11.34-4.2-11.31-11.37.02-8.43 2.66-10.84 11.77-10.77z" fill="#f6e090"/><path d="m384.78 582.81c-7.14-.08-11.23-3.9-11.38-10.65-.13-6.1 6-11.64 12.66-11.47 5.76.14 11.08 6.18 11 12.45-.18 8.6-1.69 9.79-12.28 9.67z" fill="#f7df88"/><path d="m549.8 456.77 5.42-.12a33.54 33.54 0 0 1 -25.51 12.92c-6.84.3-13.72-.12-20.59-.21l-3.92-2.36c5.76-6.56 13.65-7 21.61-7.09 5.24-.05 10.52.54 15.72.12 2.47-.25 4.85-2.14 7.27-3.26z" fill="#bc6751"/><path d="m503.49 549.17c-7.6 5.43-3.38 11.48-1.27 17.66.81 2.36 1.21 6-.08 7.64-2.1 2.7-5.6 5.46-8.77 5.8-1.63.18-4.75-4.58-5.63-7.55-4-13.23 1-23 12.84-26.4z" fill="#f0b2a0"/><path d="m498.94 721.11c0 1.39-.05 2.79 0 4.17.23 4.82-1.52 8.23-6.92 8.52-5.87.3-6.78-3.43-7-8.18a50.32 50.32 0 0 0 -2.22-11.4c-1.23-4.2-1.37-7.94 3.16-10.08s8.23-.11 10.07 3.71c1.94 4 2.66 8.63 3.91 13z" fill="#f7de8d"/><path d="m183.87 205.9c0-.92 0-1.84 0-2.76l6.89-12c1.65 2.26 1.35 4.49 1.72 6.59.59 3.25 1.64 6.42 2.5 9.62 6.54 6.4 7.82 19 2.8 27.72l-7 2.93c-.47-3.35-.83-5.92-1.2-8.48.06-.87.12-1.75.17-2.62l-3.39-13.9z" fill="#f6e090"/><path d="m303.91 97.62c.06 5.56-4.92 11.25-10 11.4-6.9.2-12.6-4.92-12.58-11.29q0-11 11.6-10.85c7.07.06 10.91 3.88 10.98 10.74z" fill="#f7de8d"/><path d="m189.41 134.75c2.75-1.95 5.28-4.38 8.31-5.73s6.58-1.84 10-2.31c1.34-.19 3.8.33 4.1 1.13 2.16 5.64 7.62 5.17 12 6.66.62 4.41-1.48 6.16-5.85 5.69l-6.81-5.91-1.67-1.28-2.93-1.21h-5.69l-6.26 1.86 8.92 3.85c6 3.42 8.19 9.56 5.65 15.71l-5.65-.4-4.23-1.36c-5.9-2.34-8.24-6.69-6.88-12.65.67-2.89.52-4.46-3.01-4.05z" fill="#fbf9e2"/><path d="m528.53 792.56c4.14-11.24 11-10.89 19.56-5.1a26.21 26.21 0 0 1 8.18 9.44c1.08 2.09.2 5.68-.95 8.05-.4.82-4.74.8-6.52-.17-6.91-3.78-13.52-8.09-20.27-12.22z" fill="#f2b09d"/><path d="m39.05 300.89c4-10.52 9.77-12.41 18.11-5.55a40.77 40.77 0 0 1 9.13 10.49c1 1.74.19 5.57-1.25 7.32-.92 1.12-5 1-6.77 0-6.47-3.67-12.57-7.95-19.22-12.26z" fill="#f1b1a0"/><path d="m119.86 31.17c6.83-.13 10.32 4.38 8.65 9a76.78 76.78 0 0 1 -5.42 12.55c-.93 1.59-4 3.23-5.7 2.94-6.7-1.13-10.15-12.35-5.47-17.29 2.77-2.94 6-5.46 7.94-7.2z" fill="#f6e092"/><path d="m131 207.76c-4.26-4.9-10.77-6.77-8.36-14.12 1.48-4.53 10.25-13.85 14.44-13.9a8.59 8.59 0 0 1 5.92 2.81c1 1.14.92 4.07.06 5.46-1.93 3.12-5 5.57-6.95 8.67s-3.05 6.58-5.11 11.08z" fill="#f0b2a0"/><path d="m426 392.21c7.61 1.91 10.21 8.14 12.49 14.35 1.44 3.93 2 8.16 3.27 13.52-.8.35-4 2.36-4.47 1.86a103 103 0 0 1 -12.29-14.58c-1.3-1.95-.21-5.41-.21-6.47l-11.64-8.69.43-.5c2.64 1.25 5.29 2.51 7.94 3.74 3.48 1.65 4.55-.08 4.48-3.23z" fill="#f6e092"/><path d="m185.29 738.15c-11.42-4.28-13.79-7.61-6.93-21.47 2.07-4.19 5.35-5.4 9.31-4.09 4.66 1.55 4.54 5.59 3.36 9.34-1.72 5.46-3.81 10.82-5.74 16.22z" fill="#62c1cf"/><path d="m176 27.91 12-7.89 11.7 8.18-3.42 13.1c-4.59.45-9 1.1-13.38 1.19-1.37 0-3.64-1.22-4-2.35-1.33-4.26-2.09-8.72-2.9-12.23zm11.89 11c2.21-3.31 4.22-5 4.06-6.45s-2.36-3-3.67-4.44c-1.57 1.46-3.92 2.69-4.46 4.46-.34 1.16 1.87 3.09 4.09 6.42z" fill="#75c4cb"/><path d="m147.58 316.69c3.68 1.31 7.41 2.5 11 4 .89.37 2.07 1.9 1.89 2.59a111.24 111.24 0 0 1 -4.83 16c-.59 1.39-4.65 2.92-5.94 2.25-5.62-2.92-9.6.53-14.33 2.89-2.62-3.9-7.58-6.68-3.81-12.38a3.3 3.3 0 0 0 .21-2c-.3-2.63-1.92-6.72-.81-7.62 3.68-3 8.34-4.81 12.62-7.08l-8.86 9.2c1.29 3.78 2.73 8 4.14 12.14h13.42c1.89-4.88 3.55-9.17 4.51-11.63z" fill="#faf7dc"/><path d="m288.76 41.66c4.23-2.64 8.18-4.94 11.94-7.49 2.28-1.54 4.2-3.58 6.43-5.21a48 48 0 0 1 4.87-2.78c1.06 1.93 2.85 3.8 3 5.8.47 5.44-5.64 12.77-11.81 15.16s-10.19-.86-14.43-5.48z" fill="#5cc3d2"/><path d="m195 207.37c-.86-3.2-1.91-6.37-2.5-9.62-.37-2.1-.07-4.33-1.72-6.59l-6.89 12c.1-9.82 4.78-17.42 11.89-24 3.79-3.5 7.22-7.36 10.82-11 1 .38 2.36 1.36 3 1a43.85 43.85 0 0 0 5.47-3.89c-1.52 2.88-2.51 6.25-4.68 8.56-9.01 9.56-16.09 19.82-15.39 33.54z" fill="#f4e7b2"/><path d="m396.51 54.86c-4.4-3.78-10.78-7-10.5-9.48.61-5.5 4.22-10.87 7.47-15.74.73-1.09 5.65-.81 7.43.46 1.45 1 1.92 4.67 1.41 6.83-1.24 5.3-3.32 10.41-5.81 17.93z" fill="#62c1cf"/><path d="m497.67 98q1.35 2.86 2.69 5.73c.07.9.13 1.8.19 2.7l-2.65 2.11c-2.48-3.76-4.71-7.14-6.95-10.52l-.33-1.56q-1.42-6.2-2.84-12.46v-.06c0-1.81-.05-3.61-.07-5.42l2.95-.1 1.34-2.83 5.75-7 7.14.12 5.53 1.52c1 1.34 2 2.68 3 4l-4.12-.06c-7.21.37-10.21 4.38-10.06 11.11-.5 1.42-1 2.85-1.49 4.27l-1.34 2.62z" fill="#f0b2a0"/><path d="m147.58 316.69 9.21 8.31c-1 2.46-2.62 6.75-4.51 11.63h-13.42c-1.41-4.15-2.85-8.36-4.14-12.14l8.86-9.2z" fill="#f7df88"/><path d="m503.49 549.17-2.91-2.85c.48-.47 1-.94 1.43-1.42l1.61-1.21c8.48-6.19 18.38-4.46 27.91-4.76 1.63 0 3.27.19 4.91.3l1.31 1.26c-9.75 9.2-22.33 7.73-34.26 8.68z" fill="#bc6751"/><path d="m189.41 134.75c3.53-.41 3.68 1.16 3 4.07-1.36 6 1 10.31 6.88 12.65l4.23 1.36c1.88.13 3.76.27 5.65.39v2l-11.34 1.9c-11.81-.37-17.42-4-16-11.66.69-3.91 4.93-7.17 7.58-10.71z" fill="#f0c53b"/><path d="m59 176.87c-10.58-4.68-13-11.57-6.8-19.72 1.68-2.19 6-2.48 9-3.64.88 2.78 2.83 5.73 2.4 8.31-.76 5.1-2.92 9.99-4.6 15.05z" fill="#67c3cf"/><path d="m277.1 368c-.42-6.16 3.91-8.25 8.8-8.94 5.31-.75 9.14 3.47 9.23 9.21.1 6-3.59 9.79-9.6 9.68-6.75-.14-7.93-4.79-8.43-9.95z" fill="#f0b2a0"/><path d="m85.86 762.16 8.24 4.63c-.59 5.09-1.26 10.86-2 17.2h-3l-10.72-4.27c-.91-1.54-2.35-4-3.79-6.48l8.64-11.12z" fill="#f7df88"/><path d="m294.91 252.19c3.55-3.65 6.41-7 9.72-9.79 1.34-1.14 4.3-2.18 5.42-1.51 2.14 1.28 4.59 3.65 5 5.88 1 6.06-2.95 10.48-8.14 12.26-2.3.8-6.14-2.35-9.14-3.95-1.18-.62-1.95-1.92-2.86-2.89z" fill="#efb4a6"/><path d="m463 251.35c7.93-.9 8.16 5.69 7.82 9.63-.23 2.61-5.17 6.26-8.49 6.88-5.38 1-7.78-3.57-8.19-8.25-.54-6.06 3.72-7.85 8.86-8.26z" fill="#62c1cf"/><path d="m142.32 515.64c7.92-.19 8.9 4.86 9.24 9.25.44 5.69-4 7.21-8.95 7.28a8.45 8.45 0 0 1 -8.84-8.72 8.33 8.33 0 0 1 8.55-7.81z" fill="#ebb6a7"/><path d="m281.31 704.56c-.73-5.3 2.33-8 7.68-8 4.83.07 8.9 1.94 9 7.63.12 5.49-3.24 9.18-8.23 9.5-5.18.31-8.76-2.91-8.45-9.13z" fill="#f1b1a0"/><path d="m209.14 155.18c0-.65 0-1.31 0-2 2.54-6.14.33-12.28-5.65-15.7q-1.32-2.86-2.66-5.71h5.69l2.93 1.21 1.65 1.28 6.81 5.91c2.05 3.34 4 6.46.47 10.34-1.12 1.23-.41 4-.54 6.1q-.82 2.94-1.63 5.88z" fill="#f7dd84"/><path d="m120 423.64c-.81 8.1-5.86 14.44-9.45 12.75-3-1.4-6.13-5-6.7-8.06-.75-4.08 7.57-11.2 10.74-9.82 2.49 1.08 4.21 3.94 5.41 5.13z" fill="#62c1cf"/><path d="m449.23 89.55c-3.38 4.11-5.54 8.53-9.12 10.66-4.66 2.77-7.7-1.6-8.55-5.33a10.81 10.81 0 0 1 2.36-8.58 13.76 13.76 0 0 1 9.07-4c1.78-.02 3.55 3.94 6.24 7.25z" fill="#f2e399"/><path d="m414.31 218.79c-.47 3.85-1.07 7.94-7.08 7.92-5 0-9.48-3.73-9.51-8.22 0-4 5.13-9.47 9-9.23 5.76.34 7.35 4.21 7.59 9.53z" fill="#f0b2a0"/><path d="m67.46 663.72c-3.55-3.33-8.14-5.71-8.11-8 0-4.16 2.43-8.57 4.81-12.28.74-1.16 5.06-1.19 6.93-.23 1.45.74 2.65 4.08 2.19 5.82-1.16 4.41-3.28 8.59-5.82 14.69z" fill="#67c3cf"/><path d="m563.29 72.12c3.87-3.41 7-6.45 10.47-9.1a6.15 6.15 0 0 1 4.76-1.18 5.48 5.48 0 0 1 3.22 3.67c.6 4.83 1.1 10.13-4.86 12.38-6.29 2.36-10.21-1.29-13.59-5.77z" fill="#75c4cb"/><path d="m495.53 345.2c-1.56 2.39-3.21 4.86-4.81 7.35-4.31 6.73-5.81 6.71-11.63 1.15-2.95-2.82-2.83-5-.17-7.59 7.08-6.97 12.13-8.32 16.61-.91z" fill="#67c3cf"/><path d="m339.43 423.59c3.68-3.38 7-6 9.74-9.06 3-3.34 5.47-2.42 7.48.4 3.78 5.31.77 9.44-2.95 13.42s-6.39 2.24-9.25-1.06c-1.29-1.49-3.24-2.42-5.02-3.7z" fill="#62c1cf"/><path d="m271.72 192c-3.47 3.5-6.15 9.05-12.53 5.84-2.89-1.44-8.53-2.37-6.31-7.32 1.43-3.19 5-7.26 8-7.57 5.44-.59 9.12 3.58 10.84 9.05z" fill="#f6e092"/><path d="m480.56 172.9-10 11.13c-2.66-2.66-6.26-4.92-7.71-8.11-1.29-2.82 7.85-10.9 10.8-9.7 2.35.96 3.91 3.67 6.91 6.68z" fill="#67c3cf"/><path d="m411.07 656.86c-.89 4.14-.76 7.09-2.13 9-1.57 2.2-5.5 5.41-6.61 4.84-3.39-1.74-8.07-4.15-4.36-9.62.86-1.26.49-3.45 1.48-4.48 1.88-1.94 4.47-4.78 6.51-4.58s3.88 3.57 5.11 4.84z" fill="#67c3cf"/><path d="m367.79 334.6c2.7-4.25 4.79-8.59 8-12 1.11-1.17 5.35-.69 7.41.4 5.14 2.72 5.32 8 3 12.07-1.66 2.93-5.89 6.05-9 6.11-2.92.11-5.84-3.87-9.41-6.58zm6.09-.54 2.41 2.87c1.76-1.29 4.17-2.26 5-4 .55-1.1-1.2-3.29-1.92-5z" fill="#f4e7b2"/><path d="m52.47 492.23c4.34.54 11.34.41 11.59 1.62 1.09 5.22.2 10.83 0 16.47-10.06-1.25-10.06-1.25-11.59-18.09z" fill="#f7de8d"/><path d="m294.94 607.38c0 5-4 8.43-9.73 8.3-6.66-.15-7.51-5.2-7.61-9.73-.11-4.79 2.63-8.37 8.19-8.5 5.87-.15 9.14 3.55 9.15 9.93zm-2.86 1.18-.21-4.48-9.79-.89.29 7.06z" fill="#75c4cb"/><path d="m539.29 123.16c-6.7 5.45-13.92 5.4-22.23 1.84 8.18-4.19 18.23-6.86 12.18-19.7l2-.18 8.08 6.91zm-5.23-10.65c-.81 3.42-1.6 6.74-2.38 10.06 1.1.09 3.16.31 3.17.26.44-3.2.72-6.42 1-9.64a13.33 13.33 0 0 0 -1.79-.68z" fill="#bc715c"/><path d="m423.47 479.32c6.49-.32 9.35 2.28 9.13 8.28-.21 5.53-3 7.84-8.51 7.91-6.32.08-8.57-3.71-8.56-8.85s2.32-8.57 7.94-7.34zm5.88 6.67-4.89-4c-1.36 1.62-3.08 3.1-3.89 5-.24.55 2.33 3.26 3.1 3.06 1.71-.45 3.1-2.05 5.68-4.05z" fill="#67c3cf"/><path d="m362.1 809.82-10.84 11.38c-2.27-2.39-6.85-6.27-6.41-6.92 2.69-4 6.41-7.36 10.17-10.49.27-.23 3.57 3.01 7.08 6.03z" fill="#67c3cf"/><path d="m482.14 78.38c-6.12-6.47-6.12-15.2 0-22.29 4.45.52 6.17-1.5 5.53-5.7l8.33.7c-3.05 3.9-5.67 7.22-8.28 10.55l-.06 2.77-2.76 2.85q-1.39 5.56-2.76 11.12z" fill="#f3ae9a"/><path d="m509.3 74.26 4.12.06c5.85 2.79 5 7.49 3.69 12.32l-.82 1.36-1.63 1.45-.08-.1-16.83.28c.5-1.42 1-2.85 1.49-4.27 6.65-.84 10.58-4.05 10.06-11.1z" fill="#bc6751"/><path d="m137.71 104.54c.7 5.3-1.82 7.6-7.61 7.65-6.24.06-8.73-3.5-8.78-8.53s3.5-7.84 8.81-7.9c5.87-.08 7.92 3.24 7.58 8.78zm-9 6.86 6.05-7.68c-1.31-1-2.91-2.94-3.87-2.68a7.24 7.24 0 0 0 -4.45 3.59c-.51 1.24.97 3.23 2.26 6.77z" fill="#75c4cb"/><path d="m31 390.4c3.6-5 6-8.39 8.23-11.55 6.93 1.59 7.28 6.38 6.49 11.33-.32 2-2.63 5.43-3.06 5.3-3.74-1.2-7.28-3.06-11.66-5.08z" fill="#62c1cf"/><path d="m217.88 156.63c.13-2.08-.58-4.87.54-6.1 3.52-3.88 1.58-7-.47-10.34 4.37.47 6.47-1.28 5.85-5.69.26-2.46.52-4.92.66-6.17l-9.37-6.33 6.92 1 2.18-.12 2.28-.19a103.48 103.48 0 0 0 .29 11.29c.26 2.08 1.72 4 2.63 6-.11 1.38.3 3.17-.44 4.06-3.52 4.36-7.35 8.43-11.07 12.59z" fill="#f4e7b2"/><path d="m226.47 122.72-2.28.19-2.19.09-6.92-1-2.77-.6c-.79-1.88-1.66-3.73-2.33-5.65-1.79-5.06-.55-7.48 5.38-10.1l2.51 5.15q4.38 3.44 8.75 6.88c-.04 1.68-.1 3.32-.15 5.04z" fill="#f2c22c"/><path d="m344.37 280.22 6.46-5.14c1.57 2.54 3.46 4.95 4.58 7.66.65 1.57.06 3.63 0 5.47l-11 3q-.03-5.5-.04-10.99z" fill="#f2e399"/><path d="m332.58 187.56 1.81-5.7c8.46 1.72 12.54 9.46 8.41 15.89-1.12 1.75-4.78 3.75-6.15 3.15-2.52-1.09-4.2-4-6.23-6.18l10.12 1.78c-1.2-5.95-1.2-5.95-7.96-8.94z" fill="#75c4cb"/><path d="m189.55 229.54c.37 2.56.73 5.13 1.2 8.48l7-2.93c-5.24 10.27-10.35 12.75-22.88 10.48z" fill="#faf7dc"/><path d="m199.65 417.21q2.52-3.65 5-7.28c-3.53 6.28-2.84 7.61 4.5 9.86a70.82 70.82 0 0 1 7.86 3.43 1.66 1.66 0 0 0 -.88.17l-12.13-1.91-.3 3.65-10.46-8.13 5.95.7 1 .44z" fill="#5ca8b5"/><path d="m487.71 61.65c2.61-3.33 5.23-6.65 8.28-10.55l-8.33-.7c5.82-6.68 7.95-6.6 13.93.55l-11.09 12c-.45.06-.9.11-1.35.13z" fill="#f0b2a0"/><path d="m491 98.06c2.24 3.38 4.47 6.76 6.95 10.52l2.66-2.11 2.93 1.85c.33 3.45.75 6.9 1 10.36.2 3 .22 6 .31 9l-5.64-14.38-1.24-1.28c-5.18-3.3-7.66-7.89-6.97-13.96z" fill="#ebb6a7"/><path d="m209.14 155.18 7.11 7.33c-.41.91-.82 1.83-1.22 2.74a44.7 44.7 0 0 1 -5.48 3.89c-.63.33-2-.65-3-1 .09-2.71.18-5.41.28-8.12l2-1.43-1.22-1.17-1.42 2-8.44-2.34z" fill="#f2e399"/><path d="m230.77 806-7-6.23c8.21-7.14 11.27-7.26 15.78-.64-1.42 1-2.89 2-4.3 3.15s-2.5 2.03-4.48 3.72z" fill="#f7dd84"/><path d="m517.11 86.64c1.32-4.83 2.16-9.53-3.69-12.32-1-1.35-2-2.69-3-4 4.42-.24 9.74-1.58 11.28 4.14 1.3 4.54 1.5 9.77-4.59 12.18z" fill="#fbf0e9"/><path d="m426 392.21c0 3.15-1 4.88-4.53 3.23-2.65-1.23-5.3-2.49-7.94-3.74l-4-6.13 8 2.26z" fill="#f0c53b"/><path d="m203.7 425.13.3-3.65 12.14 1.91 5.38 4.32-6.23.88z" fill="#37a4af"/><path d="m489.15 63.06c.45 0 .9-.07 1.35-.13l7.23 5.69-5.75 7-1.36 2.85-2.95.1q0-5.66 0-11.31a3.31 3.31 0 0 0 .12-1.25z" fill="#fbf0e9"/><path d="m83.23 762.12-8.64 11.12-5.43-2.84c1.68-1.76 3.08-4 5.12-5.14 2.72-1.5 5.94-2.14 8.95-3.14z" fill="#f4e7b2"/><path d="m332.58 187.56c6.76 3 6.76 3 8 8.94l-10.12-1.78-.35-.34-.06-3.29c.82-1.18 1.67-2.36 2.53-3.53z" fill="#46c1d7"/><path d="m74.6 773.25c1.44 2.47 2.88 4.94 3.79 6.48l10.72 4.27a23.82 23.82 0 0 1 -2.78.29c-13.33-.06-11.33 1.92-11.73-11.04z" fill="#f4e7b2"/><path d="m487.65 67.23q0 5.65 0 11.31c0 1.81 0 3.61.07 5.42l-5.6-5.58q1.38-5.55 2.75-11.11z" fill="#ebb6a7"/><path d="m344.37 280.22q0 5.49 0 11c-1.94-1-5.22-1.7-5.58-3.1-.97-4.04.66-7.33 5.58-7.9z" fill="#fbf9e2"/><path d="m344.43 291.22 11-3c-1.17 2.34-1.9 5.09-3.65 6.89a6.49 6.49 0 0 1 -5.68 1.29c-1.1-.4-1.1-3.4-1.67-5.18z" fill="#fbf9e2"/><path d="m186.36 213 3.36 13.89-3.75-.2c-.8-5-1.52-9.47-2.23-13.92z" fill="#faf7dc"/><path d="m209.19 467.77c1-7.58 5.87-11.72 12.88-14z" fill="#5cc3d2"/><path d="m487.78 84q1.43 6.24 2.84 12.48-1.42-6.22-2.84-12.48z" fill="#ebb6a7"/><path d="m487.67 50.39c.64 4.2-1.08 6.22-5.53 5.7z" fill="#f0b2a0"/><path d="m516.31 140.19-2.84-5.7 5.27.29z" fill="#fbf0e9"/><path d="m222.3 453.65 6.61-5.51z" fill="#5cc3d2"/><path d="m186.36 213-2.62-.23.12-6.9q1.26 3.6 2.5 7.13z" fill="#f4e7b2"/><path d="m510.4 70.26-5.53-1.52c2.55-1.93 4.86-3.02 5.53 1.52z" fill="#fbf0e9"/><path d="m330 191.09.06 3.29-2.17-2z" fill="#75c4cb"/><path d="m85.86 762.16-2.59-.07 1.73-2.09z" fill="#f4e7b2"/><path d="m503.62 543.69-1.62 1.21z" fill="#f0b2a0"/><path d="m514.66 89.46 1.63-1.46z" fill="#fbf0e9"/><path d="m209.34 472.06a5.85 5.85 0 0 1 -.61-.89c0-.07.26-.28.4-.43a1.79 1.79 0 0 1 .21 1.32z" fill="#5cc3d2"/><path d="m497.91 112.06 1.24 1.28z" fill="#f0b2a0"/><path d="m241.55 89.43c3.59 3 6.63 4.39 3.73 9-1.2 1.9-.18 5.09-.41 7.67a27.28 27.28 0 0 1 -1.13 4.44l-2.19-.56z" fill="#f6e090"/><path d="m226.63 117.68q-4.37-3.45-8.75-6.88c.31-1.72.62-3.44 1-5.47 6.93 2.01 8.54 6.48 7.75 12.35z" fill="#faf7dc"/><path d="m235.27 89.58 2.73-5.78 2.61 1.76-5.3 4.06z" fill="#f6e090"/><path d="m503.49 108.32-2.93-1.85c-.07-.9-.13-1.8-.2-2.7.37-2.63.75-5.26 1.14-8h9.36c-.65 3-1.17 5.44-1.68 7.83l-4.07 3.12z" fill="#fdfefd"/><path d="m497.67 98-1.26-5.78z" fill="#ebb6a7"/><path d="m505.08 106.74 4.07-3.12z" fill="#fbf0e9"/><path d="m530.67 176.06c-.46 2.47-.93 4.94-1.43 7.58-7.23-2.8-.72-5.3-.72-7.84z" fill="#f0b2a0"/><path d="m200.87 131.81q1.33 2.85 2.66 5.71l-8.92-3.85z" fill="#f2e399"/><path d="m203.53 152.83-4.23-1.36z" fill="#f7dd84"/><path d="m209.49 133-2.93-1.21z" fill="#f2e399"/><path d="m211.14 134.28-1.65-1.28z" fill="#f2e399"/><path d="m187.91 38.9c-2.22-3.33-4.43-5.26-4.07-6.43.54-1.77 2.89-3 4.46-4.46 1.31 1.47 3.49 2.85 3.67 4.44s-1.85 3.14-4.06 6.45z" fill="#46c1d7"/><path d="m509.3 74.26c.52 7-3.41 10.26-10.06 11.11-.15-6.73 2.85-10.74 10.06-11.11z" fill="#fbf0e9"/><path d="m490.62 78.44 1.38-2.85z" fill="#ebb6a7"/><path d="m373.88 334.06 5.52-6.06c.72 1.71 2.47 3.9 1.92 5-.86 1.72-3.27 2.69-5 4z" fill="#f7dd84"/><path d="m292.08 608.56-9.71 1.69q-.15-3.54-.29-7.06l9.79.89z" fill="#46c1d7"/><path d="m534.06 112.51a13.33 13.33 0 0 1 1.77.68c-.26 3.22-.54 6.44-1 9.64 0 0-2.07-.17-3.17-.26.8-3.32 1.59-6.64 2.4-10.06z" fill="#cc5639"/><path d="m429.35 486c-2.58 2-4 3.61-5.68 4.05-.77.2-3.34-2.51-3.1-3.06.81-1.86 2.53-3.34 3.89-5z" fill="#46c1d7"/><path d="m487.65 67.23h-2.76l2.76-2.85.12 1.56a3.31 3.31 0 0 1 -.12 1.29z" fill="#f0b2a0"/><path d="m487.77 66-.12-1.56.06-2.77 1.44 1.41z" fill="#ebb6a7"/><path d="m128.7 111.4c-1.29-3.54-2.77-5.53-2.27-6.77a7.24 7.24 0 0 1 4.45-3.59c1-.26 2.56 1.71 3.87 2.68z" fill="#46c1d7"/><path d="m222 123 2.18-.12z" fill="#f6e092"/><path d="m199.65 417.21.51.9-1-.44z" fill="#5cc3d2"/><path d="m206.24 159.42 1.42-2 1.22 1.17-2 1.43a8.08 8.08 0 0 0 -.64-.6z" fill="#fdfefd"/></svg>